<?xml version="1.0" encoding="UTF-8"?>
<svg id="Logo" xmlns="http://www.w3.org/2000/svg" viewBox="0 0 226 112">
  <defs>
    <style>
      .cls-1 {
        fill: #fff;
      }

      .cls-2 {
        fill: #36376d;
      }

      .cls-3 {
        fill: #595bb4;
      }

      .cls-4 {
        fill: #a3a3a3;
      }

      .cls-5 {
        fill: #636363;
      }

      .cls-6 {
        fill: #427576;
      }

      .cls-7 {
        fill: #6dc1c3;
      }
    </style>
  </defs>
  <g id="Tiles">
    <g id="I">
      <g id="SHADOW">
        <rect class="cls-6" x="-8.3196" y="24.5858" width="68.6391" height="2.8284" transform="translate(-10.7696 26.0019) rotate(-45.003)"/>
        <rect class="cls-6" x="2" y="2" width="50" height="50" rx="2.5" ry="2.5"/>
      </g>
      <rect id="Rect" class="cls-7" width="50" height="50" rx="2.5" ry="2.5"/>
      <path class="cls-1" d="m18.9,38.9h1.4c1.3,0,2.1-.3,2.4-1,.3-.6.4-3.7.4-9.3v-7.3c0-5.7-.1-8.9-.3-9.5-.2-.6-.9-.9-2.1-.9h-1.7v-1.4c2.4.1,4.7.2,7.1.2s3.7,0,5.3-.2v1.4h-1.7c-1,0-1.7.1-1.9.4-.3.2-.4.9-.5,1.8,0,1.5-.1,4.3-.1,8.2v7.4c0,5.6.1,8.6.4,9.2.2.6,1,.8,2.4.8h1.4v1.4c-1.8-.1-3.7-.2-5.8-.2s-4.6,0-6.6.2v-1.4l-.1.2Z"/>
    </g>
    <g id="I2">
      <g id="SHADOW-2" data-name="SHADOW">
        <rect class="cls-6" x="49.6804" y="84.5858" width="68.6391" height="2.8284" transform="translate(-36.2083 84.5921) rotate(-45.003)"/>
        <rect class="cls-6" x="60" y="62" width="50" height="50" rx="2.5" ry="2.5"/>
      </g>
      <rect id="Rect-2" data-name="Rect" class="cls-7" x="58" y="60" width="50" height="50" rx="2.5" ry="2.5"/>
      <path class="cls-1" d="m76.8,98.9h1.4c1.3,0,2.1-.3,2.4-1,.3-.6.4-3.7.4-9.3v-7.3c0-5.7-.1-8.9-.3-9.5-.2-.6-.9-.9-2.1-.9h-1.7v-1.4c2.4.1,4.7.2,7.1.2s3.7,0,5.3-.2v1.4h-1.7c-1,0-1.7.1-1.9.4-.3.2-.4.9-.5,1.8,0,1.5-.1,4.3-.1,8.2v7.4c0,5.6.1,8.6.4,9.2.2.6,1,.8,2.4.8h1.4v1.4c-1.8-.1-3.7-.2-5.8-.2s-4.6,0-6.6.2v-1.4l-.1.2Z"/>
    </g>
    <g id="O">
      <g id="SHADOW-3" data-name="SHADOW">
        <rect class="cls-6" x="107.6804" y="24.5858" width="68.6391" height="2.8284" transform="translate(23.2104 108.0307) rotate(-45.003)"/>
        <rect class="cls-6" x="118" y="2" width="50" height="50" rx="2.5" ry="2.5"/>
      </g>
      <rect id="Rect-3" data-name="Rect" class="cls-7" x="116" y="0" width="50" height="50" rx="2.5" ry="2.5"/>
      <path class="cls-1" d="m124.7,25c0-4.7,1.5-8.5,4.6-11.4s7.1-4.3,12.1-4.3,8.8,1.3,11.7,4c2.8,2.7,4.2,6.2,4.2,10.6s-1.6,8.8-4.9,12c-3.3,3.2-7.4,4.8-12.4,4.8s-5.8-.6-8-1.9c-2.3-1.3-4-3.1-5.3-5.5-1.3-2.4-2-5.2-2-8.3h0Zm4.4-1.8c0,3.2.6,6.1,1.7,8.5,1.1,2.4,2.6,4.2,4.5,5.4s4,1.8,6.4,1.8,4.2-.5,5.8-1.5c1.7-1,3-2.5,3.9-4.6,1-2,1.4-4.5,1.4-7.4s-.5-5.6-1.6-7.8c-1.1-2.2-2.5-3.8-4.3-4.9-1.8-1.1-4-1.6-6.5-1.6s-4.3.5-5.9,1.4c-1.7,1-3,2.4-3.9,4.2-.9,1.9-1.4,4-1.4,6.4l-.1.1Z"/>
    </g>
    <g id="T">
      <g id="SHADOW-4" data-name="SHADOW">
        <rect class="cls-2" x="165.6804" y="24.5858" width="68.6391" height="2.8284" transform="translate(40.2003 149.045) rotate(-45.003)"/>
        <rect class="cls-2" x="176" y="2" width="50" height="50" rx="2.5" ry="2.5"/>
      </g>
      <rect id="Rect-4" data-name="Rect" class="cls-3" x="174" y="0" width="50" height="50" rx="2.5" ry="2.5"/>
      <path class="cls-1" d="m201.3,11.7c-.2,2.1-.2,4.4-.2,6.8v12.2c0,4.6.1,7.1.3,7.5.2.5,1,.7,2.4.7h1.6v1.4c-2.5-.1-4.7-.2-6.4-.2s-3.9,0-6.4.2v-1.4h1.8c.9,0,1.6-.1,1.8-.4.3-.3.5-.7.5-1.5.1-1.7.2-3.8.2-6.5v-12.3c0-2.4,0-4.6-.2-6.7h-2.2c-3.5,0-5.5,0-5.8.2-.4.2-.6.8-.7,1.9l-.3,2.9h-1.4v-2.6c0-1,0-2.5-.2-4.4,7.7.1,12.3.2,13.6.2l11.9-.2c-.3,2.4-.4,4.8-.5,7h-1.4l-.2-2.8c0-1-.2-1.6-.4-1.7-.2-.2-.5-.3-1.1-.3-1.6-.1-3.4-.2-5.4-.2h-1.7l.3999.2Z"/>
    </g>
    <g id="_" data-name=" ">
      <g id="SHADOW-5" data-name="SHADOW">
        <rect class="cls-5" x="-8.3196" y="84.5858" width="68.6391" height="2.8284" transform="translate(-53.1982 43.5778) rotate(-45.003)"/>
        <rect class="cls-5" x="2" y="62" width="50" height="50" rx="2.5" ry="2.5"/>
      </g>
      <rect id="Rect-5" data-name="Rect" class="cls-4" y="60" width="50" height="50" rx="2.5" ry="2.5"/>
      <path class="cls-1" d="m14.2,86.5v-3h9.3v-9.3h3v9.3h9.3v3h-9.3v9.3h-3v-9.3h-9.3Z"/>
    </g>
    <g id="_-2" data-name=" -2">
      <g id="SHADOW-6" data-name="SHADOW">
        <rect class="cls-5" x="49.6804" y="24.5858" width="68.6391" height="2.8284" transform="translate(6.2204 67.0163) rotate(-45.003)"/>
        <rect class="cls-5" x="60" y="2" width="50" height="50" rx="2.5" ry="2.5"/>
      </g>
      <rect id="Rect-6" data-name="Rect" class="cls-4" x="58" width="50" height="50" rx="2.5" ry="2.5"/>
      <path class="cls-1" d="m87.8,44l-1,1c-2.2-2.2-3.9-4.2-5-6.2-1.2-1.9-2-4.1-2.7-6.4-.6-2.4-.9-4.8-.9-7.4s.4-5.8,1.2-8.3c.8-2.5,1.9-4.7,3.1-6.5s2.7-3.4,4.4-5l.8,1.1c-1.5,1.8-2.7,3.6-3.6,5.3-.9,1.8-1.5,3.7-2,5.8-.4,2.1-.7,4.5-.7,7.2s.2,5.4.6,7.6c.4,2.2,1,4.2,1.8,5.8.8,1.7,2,3.7,3.8,6.1l.2-.1Z"/>
    </g>
    <g id="_-3" data-name=" -3">
      <g id="SHADOW-7" data-name="SHADOW">
        <rect class="cls-5" x="107.6804" y="84.5858" width="68.6391" height="2.8284" transform="translate(-19.2183 125.6065) rotate(-45.003)"/>
        <rect class="cls-5" x="118" y="62" width="50" height="50" rx="2.5" ry="2.5"/>
      </g>
      <rect id="Rect-7" data-name="Rect" class="cls-4" x="116" y="60" width="50" height="50" rx="2.5" ry="2.5"/>
      <path class="cls-1" d="m136.2,66l1-1c2.2,2.2,3.8,4.2,5,6.2,1.2,1.9,2.1,4.1,2.7,6.4.6,2.4.9,4.8.9,7.4s-.4,5.8-1.2,8.3-1.9,4.7-3.1,6.5-2.7,3.4-4.4,5l-.8-1.1c1.5-1.8,2.7-3.6,3.6-5.3s1.5-3.7,2-5.8c.5-2.1.7-4.5.7-7.2s-.2-5.4-.6-7.6c-.4-2.2-1-4.2-1.8-5.9-.8-1.7-2-3.7-3.8-6.1l-.2.2Z"/>
    </g>
    <g id="semicolon">
      <g id="SHADOW-8" data-name="SHADOW">
        <rect class="cls-5" x="165.6804" y="84.5858" width="68.6391" height="2.8284" transform="translate(-2.2283 166.6209) rotate(-45.003)"/>
        <rect class="cls-5" x="176" y="62" width="50" height="50" rx="2.5" ry="2.5"/>
      </g>
      <rect id="Rect-8" data-name="Rect" class="cls-4" x="174" y="60" width="50" height="50" rx="2.5" ry="2.5"/>
      <path class="cls-1" d="m202.8,86l.6.6c-.8,2-1.7,3.8-2.7,5.4s-2.2,3.4-3.8,5.4l-1.8.9-.6-.5c1.4-2.4,2.4-4.3,2.9-5.7.5-1.4.9-3,1-4.7,1.7-.4,3.1-.9,4.4-1.4h0Zm-2.3-14.3c.7,0,1.3.2,1.8.7s.7,1.1.7,1.8-.2,1.3-.7,1.8-1.1.7-1.8.7-1.3-.2-1.8-.7-.7-1.1-.7-1.8.2-1.3.7-1.8,1.1-.7,1.8-.7Z"/>
    </g>
  </g>
</svg>