<?xml version="1.0" encoding="utf-8"?>
<!-- Generator: Adobe Illustrator 18.1.1, SVG Export Plug-In . SVG Version: 6.00 Build 0)  -->
<svg version="1.1" id="Layer_1" xmlns="http://www.w3.org/2000/svg" xmlns:xlink="http://www.w3.org/1999/xlink" x="0px" y="0px"
	 viewBox="0 0 15000 10000" enable-background="new 0 0 15000 10000" xml:space="preserve">
<rect fill="#0046AE" width="5000" height="10000"/>
<rect x="5000" fill="#FFD200" width="5000" height="10000"/>
<rect x="10000" fill="#CC092F" width="5000" height="10000"/>
<g>
	<g>
		<path d="M7118,3159.1c-23.5,0-44.1,6-56.1,15.3c19.1,5.6,32.9,23.1,32.9,44.5v54.2h-54.2c-21.2,0-38.8-13.7-44.5-32.5
			c-9.3,12-15.3,32.6-15.3,56.1s6,44.1,15.3,56.1c5.6-19.1,23.1-32.9,44.5-32.9h54.2v260.7c0,20.5-12.8,37.5-30.7,43.8
			c25.9,3.5,48.1,38.2,54.2,57.2c6.1-18.9,28.4-53.7,54.2-57.2c-18-6.2-31.1-23.1-31.1-43.8v-260.7h54.2c21.2,0,38.8,13.7,44.5,32.6
			c9.3-12,15.3-32.6,15.3-56.1s-6-44.1-15.3-56.1c-5.6,19.1-23.1,32.9-44.5,32.9h-54.2V3219c0-21.2,13.7-38.8,32.5-44.5
			C7162.1,3165.1,7141.5,3159.1,7118,3159.1L7118,3159.1z"/>
		<path fill="#FFD200" d="M7118,3170.3c-12.3,0-23.1,2.3-32.2,5.2c12.2,10.6,20.2,25.9,20.2,43.4v54.2c0,0.8-0.2,1.5-0.4,2.3v8.6
			h-8.6c-0.7,0.2-1.5,0.4-2.2,0.4h-54.2c-17.3,0-32.4-7.9-43-19.8c-3,9.2-5.6,19.7-5.6,32.2c0,12.3,2.3,23.1,5.2,32.2
			c10.6-12.2,25.9-20.2,43.4-20.2h65.4c-0.1,1.1-0.4,2.2-0.4,3.4v5.6c0.2,0.7,0.4,1.5,0.4,2.2v260.7c0,16.9-8.7,30.2-20.2,40.8
			c8.2,5.1,15.3,11.4,21.3,18.7c5.4,6.5,7.5,12.8,11.2,19.4c3.7-6.6,5.8-13,11.2-19.4c6-7.1,12.9-13.3,20.9-18.3
			c-11.6-10.5-20.2-24.1-20.2-41.1v-271.5h9c0.7-0.1,1.5-0.4,2.2-0.4h54.2c17.3,0,32.4,7.9,43,19.8c3-9.2,5.6-19.7,5.6-32.2
			c0-12.3-2.3-23.1-5.2-32.2c-10.6,12.2-25.9,20.2-43.4,20.2h-54.2c-0.8,0-1.5-0.2-2.2-0.4h-8.6v-8.6c-0.2-0.7-0.4-1.5-0.4-2.3V3219
			c0-17.3,7.9-32.4,19.8-43C7140.9,3172.9,7130.4,3170.3,7118,3170.3"/>
		<path d="M7796.8,4114.2c-33.1-23.5-60.3-50.1-79.7-81.2c-46.5-74.7-66.2-166.4-66.2-259.5c0-39.4,44.1-83.7,44.1-115.6
			c0-48.1-4.5-77-4.5-77c15.7,2.1,43,29.9,43,29.9s-0.9-79.9-26.2-93.9c0,0,10.2-10.5,47.1-11.6c-10.4-26.3-61.7-58.3-61.7-58.3
			c2.6-4.6,7.3-8.6,13.5-12c12.9-7.1,31-11.8,44.9-14.6c-14.8-3.1-31.8-7.8-50.5-13.8c-42.7-13.9-92.9-34.3-139.9-56.8
			c-85.7-41.1-151-43.8-187-43.8c-26.1,0-64.6,0.7-87.1,15.7c-20.6,13.7-19,31.5-26.2,37.8c-17,14.7-46.2,14.2-60.2,14.2
			c-90.9,0-94.2,97.2-94.2,97.2s23.2-35.2,64.3-35.2c68.3,0,120,37.2,120,51.2c0,5.7-7,6.7-7.5,6.7c-44.6,0-112-25.7-147.7-26.9
			v17.6c79.9,27.8,160.8,67.1,160.8,240.5c0,109.2-13.1,220.5-67.7,308.2c-19.3,31-46.9,57.6-80,81.2l324.2,58.4L7796.8,4114.2z"/>
		<g id="eagle_half">
			<path d="M7472.5,4041.2l-324.2,73.1c-14.7-4.5-84.1-26-132.8-53.1c-85.7-47.7-130.1-95.2-231.9-99.9v-77.4
				c0-41.4,15-78.6,15-118.2c-42.9-11.5-162-157.1-271.9-221.8c-161.7,104.7-286.8,276.6-286.8,355.7c0,0,4.9,1698.5,0,2290.3
				c0,34.1-20.6,82.3-20.6,82.3c59-25,167.2-173,190-229.3v26.9c89.1-40.6,154.4-147.4,183.6-202.7c0.5,8,1.9,28,1.9,28
				c79.6-69.8,181-482.4,181-482.4l168.9,166c0,0-61.1,124-84.9,146.2c0,0,16,2,34,1.9c-11.1,16-96,138.3-122.7,184.4
				c-24.9,43.1-42.5,23.9-80.8,23.9c-31.8,0-103.7,50.6-115.6,71.1c-12.4,21.5-21.7,47.7-21.7,69.2c0,23.7,25.1,56.1,25.1,56.1
				c2.7-11.3,7.5-15.3,7.5-15.3s65.8,82,75.5,92.7c7.6,8.4,41.2,13.8,53.1,3c29.7-27,58.5-45.9,84.9-84.9
				c13.6-20.1,14.6-43.1,30.3-64.7c52.3-72.2,156.4-210.4,180.3-242c1.6,8.8,3,16.1,4.5,25.1c27-54.5,156.7-158.6,156.7-158.6
				l135.7,62.5c0,0-253.4,582.5-478.3,672c0,0,97.9,41.6,218,104c17.5,9.1,35.6,18.9,53.9,28.8c15.1-18.2,31.1-38.5,46.7-59.5
				c71.9-96.1,142.1-207.6,142.1-207.6c4.9,28.9-33,118.3-97.2,228.5c-12.6,21.7-25.8,44.3-40.4,67.3c16.3,9.3,32.4,18.7,48.6,28.4
				c119,71.6,230.8,154,272.2,229.6l29.2-73.1l-29.2-73.1V4138.2l14.6-36.5L7472.5,4041.2z"/>
			<g>
				<path fill="#B07F55" d="M7472.4,6694.7c-42-45.6-129.8-101.2-228.5-152.6c119.3-214.2,178.5-552.7,150.7-620.1
					c0,0-49,175.6-108.8,275.6c-55.4,92.7-123.6,196.9-189.6,274.1c-54.3-23.2-106.9-42.6-151.8-56.1
					c197.7-152.3,399.8-655.6,399.8-655.6l-209-96.9c0,0-78.2,91.2-103.6,108.1c0,0-10.8-45.3-17.2-61.3c0,0-30,22.7-46.4,23.2
					c0,0-4.9-30.8-8.6-50.9c-20.6,13.8-55,10.8-55,10.8c30.1-14.3,65.8-101.7,65.8-101.7l-199.6-265.5c0,0-70.1,336.9-150,406.1
					V4281.4l63.2,58.7l95.7-89.4v-68.1l-84.9,79.3v-205.3c12.8-19.4,21.3-33.8,27.7-45.2c13.7,24,58.1,97.4,110.3,142.5
					c8.6-34.9,65.1-68.1,65.1-68.1s20.2,54.8,51.2,68.4c10.9-19.2,75.9-61.7,75.9-61.7s-55.6,8.5-78.2,29.5
					c-19.4-4.3-24.3-80.8-24.3-80.8s-81.9,39.9-96.1,68.4c-15.6-4.2-39.9-65.7-49.4-90.9c14.3-1.6,34.5-3.4,61-3.4
					c23.3,0,53.2,11.1,84.5,25.8c34.4,16.2,70.4,36.7,102.5,51.2c41.1,18.6,103.4,22.4,121.5,23.2c-20.8,14.6-43.6,27.9-68.4,40.4
					c0,0,98-0.9,166.8-35.2c24.6-15.8,50-31.5,71.8-50.1c-9.4,26.2-24.2,57.3-47.1,83.8c101.1-8.6,151.4-66.3,165.7-85.6
					c6.7,17.4,18.7,45.2,37.4,69.2h36.5v2484L7472.4,6694.7z"/>
				<path fill="#B07F55" d="M6727.5,3773.1l1.9,46.4V3956c-36.7-12.6-82.7-72.9-105.1-104.7v-18.7c0-17.6,10.4-30.4,17.9-37.4
					l-22.1-7.8c-8.4,9.6-17.6,23.8-17.6,42.3v10.8l-65.8,70.7l-64.7-98v-23.9c0-16.1,12.4-34.1,22.8-46.4l-21.7-7.9
					c-11,14.2-22.4,33.3-22.4,51.2v19.4c-15.2,15.8-74.4,76.7-74.4,76.7s-29.7-63.8-37.8-81.2c45.3-62.8,118.8-133.1,188.1-183.5
					C6526.7,3617.7,6676.9,3755.6,6727.5,3773.1L6727.5,3773.1z"/>
				<path fill="#B07F55" d="M6346.8,3905.5v112.6l-52.4,48.6v-167.2c0-16,6.7-35.3,17.9-56.5L6346.8,3905.5z"/>
				<path fill="#B07F55" d="M6509.8,3948.9v69.6l-60.2,56.5v-217.7L6509.8,3948.9z"/>
				<path fill="#B07F55" d="M6428.3,4074.6l-60.2-56.1V3937l60.2-63.2V4074.6z"/>
				<path fill="#B07F55" d="M6703.2,3990.1c-14,19.8-50.6,68.1-90.1,89.4v-191.1C6622.1,3903.4,6663.7,3970.7,6703.2,3990.1z"/>
				<path fill="#B07F55" d="M6591.7,3898.1v176.5l-60.2-56.1V3956L6591.7,3898.1z"/>
				<path fill="#B07F55" d="M6346.8,4086.2v176.2l-52.4-49v-78.2L6346.8,4086.2z"/>
				<path fill="#B07F55" d="M6428.3,4142.6v63.2l-60.2,56.1v-175.4L6428.3,4142.6z"/>
				<path fill="#B07F55" d="M6509.8,4086.6V4262l-60.2-56.5V4143L6509.8,4086.6z"/>
				<path fill="#B07F55" d="M6591.7,4143v62.5l-60.2,56.5v-175.4L6591.7,4143z"/>
				<path fill="#B07F55" d="M6673.2,4262.3l-60.2-56.5v-58.7c20.8-12.7,41.7-36,60.2-60.6V4262.3z"/>
				<path fill="#B07F55" d="M6520.6,4340.1l63.6-59.1v1451c0,0,4.4,72,7.5,118.9c-28.3,28.6-134.6,136.1-134.6,136.1V4280.6
					L6520.6,4340.1z"/>
				<path fill="#B07F55" d="M6420.8,5932.9c0,46.6-85.2,155.4-126.4,180.3V4281.4l62.8,58.7l63.6-59.1V5932.9z"/>
			</g>
			<g>
				<path fill="#CC092F" d="M6948.8,5775.4l46.4-31.8c0,0,3.1,15.3,7.1,36.3c-19.9,27.1-133.9,182.8-190.4,258.8
					c-14,18.9-25.8,66.9-25.8,66.9s-20.6-9.7-20.6-27.3c0-17.3,2.3-37.8,2.3-37.8s-15.3,17.6-41.9,17.6c0-21.2,41-44.2,42.6-74.4
					c-31.3,23.2-58.4,11.3-94.6,22.4c-39.4,12.1-50.4,28.7-62.5,28.1c-7.1-0.4-13.6-12.7-10.8-20.2c4.7-13.1,53.4-49.2,87.5-55.7
					c8.2-1.6,72.3,14,85.3-6c53.3-82.2,139.8-215.6,148.1-228.5c5.5-1.3,10.5-2.7,14.6-5.3
					C6936.1,5718.6,6935.6,5760.6,6948.8,5775.4L6948.8,5775.4z"/>
				<path fill="#CC092F" d="M6650.6,6031.6c2.6,3,2.4,7.3-0.4,9.7l-20.9,18.3c-2.7,2.4-7.1,1.9-9.7-1.1s-2.4-7.3,0.4-9.7l20.9-18.3
					c1.4-1.2,3.1-1.7,4.9-1.5C6647.5,6029.2,6649.3,6030.1,6650.6,6031.6L6650.6,6031.6z"/>
				<path fill="#CC092F" d="M6682.4,6053.7c6.3,7.2,5.9,17.4-0.8,23.2l-50.9,44.5c-6.6,5.8-17.3,4.6-23.6-2.6
					c-6.3-7.2-5.9-17.8,0.8-23.6l50.9-44.1c2.5-2.2,5.9-3.5,9-3.7C6673,6046.9,6678.5,6049.2,6682.4,6053.7z"/>
				<path fill="#CC092F" d="M6711.6,6088.1c6.3,7.2,5.9,17.4-0.8,23.2l-51.2,44.5c-6.6,5.7-16.9,4.6-23.2-2.6
					c-6.3-7.2-5.9-17.8,0.8-23.6l50.9-44.1c2.5-2.2,5.5-3.5,8.6-3.7C6701.8,6081.3,6707.7,6083.6,6711.6,6088.1L6711.6,6088.1z"/>
				<path fill="#CC092F" d="M6729.1,6115.4c5.2-0.4,10.7,1.5,14.6,6c6.3,7.2,5.9,17.8-0.7,23.6l-50.9,44.1
					c-6.6,5.7-16.9,4.6-23.2-2.6c-6.3-7.2-6.2-17.4,0.4-23.2l51.2-44.5C6723,6116.6,6726,6115.6,6729.1,6115.4L6729.1,6115.4z"/>
			</g>
		</g>
		<g transform="matrix(-1,0,0,1,1792.404,0)">
			<g id="eagle_half_1_">
				<path d="M-5720.7,4101.7l-14.6,36.5v2556.4l29.2,73.1l-29.2,73.1c-41.4-75.6-153.2-158-272.2-229.6
					c-16.2-9.7-32.3-19.1-48.6-28.4c14.6-23,27.8-45.6,40.4-67.3c64.2-110.2,102.1-199.6,97.2-228.5c0,0-70.2,111.5-142.1,207.6
					c-15.6,21-31.6,41.3-46.7,59.5c-18.3-9.9-36.4-19.7-53.9-28.8c-120.1-62.4-218-104-218-104c224.9-89.5,478.3-672,478.3-672
					l-135.7-62.5c0,0-129.7,104.1-156.7,158.6c-1.5-9-2.9-16.3-4.5-25.1c-23.9,31.6-128,169.8-180.3,242
					c-15.7,21.6-16.7,44.6-30.3,64.7c-26.4,39-55.2,57.9-84.9,84.9c-11.9,10.8-45.5,5.4-53.1-3c-9.7-10.7-75.5-92.7-75.5-92.7
					s-4.8,4-7.5,15.3c0,0-25.1-32.4-25.1-56.1c0-21.5,9.3-47.7,21.7-69.2c11.9-20.5,83.8-71.1,115.6-71.1
					c38.3,0,55.9,19.2,80.8-23.9c26.7-46.1,111.6-168.4,122.7-184.4c-18,0.1-34-1.9-34-1.9c23.8-22.2,84.9-146.2,84.9-146.2
					l-168.9-166c0,0-101.4,412.6-181,482.4c0,0-1.4-20-1.9-28c-29.2,55.3-94.5,162.1-183.6,202.7v-26.9
					c-22.8,56.3-131,204.3-190,229.3c0,0,20.6-48.2,20.6-82.3c4.9-591.8,0-2290.3,0-2290.3c0-79.1,125.1-251,286.8-355.7
					c109.9,64.7,229,210.3,271.9,221.8c0,39.6-15,76.8-15,118.2v77.4c101.8,4.7,146.2,52.2,231.9,99.9
					c48.7,27.1,118.1,48.6,132.8,53.1l324.2-73.1L-5720.7,4101.7z"/>
				<g>
					<path fill="#B07F55" d="M-5698.6,6622V4138h-36.5c-18.7-24-30.7-51.8-37.4-69.2c-14.3,19.3-64.6,77-165.7,85.6
						c22.9-26.5,37.7-57.6,47.1-83.8c-21.8,18.6-47.2,34.3-71.8,50.1c-68.8,34.3-166.8,35.2-166.8,35.2
						c24.8-12.5,47.6-25.8,68.4-40.4c-18.1-0.8-80.4-4.6-121.5-23.2c-32.1-14.5-68.1-35-102.5-51.2c-31.3-14.7-61.2-25.8-84.5-25.8
						c-26.5,0-46.7,1.8-61,3.4c9.5,25.2,33.8,86.7,49.4,90.9c14.2-28.5,96.1-68.4,96.1-68.4s4.9,76.5,24.3,80.8
						c22.6-21,78.2-29.5,78.2-29.5s-65,42.5-75.9,61.7c-31-13.6-51.2-68.4-51.2-68.4s-56.5,33.2-65.1,68.1
						c-52.1-45.1-96.6-118.5-110.3-142.5c-6.4,11.4-14.9,25.8-27.7,45.2v205.3l84.9-79.3v68.1l-95.7,89.4l-63.2-58.7v1450.5
						c79.9-69.2,150-406.1,150-406.1l199.6,265.5c0,0-35.7,87.4-65.8,101.7c0,0,34.4,3,55-10.8c3.7,20.1,8.6,50.9,8.6,50.9
						c16.4-0.5,46.4-23.2,46.4-23.2c6.4,16,17.2,61.3,17.2,61.3c25.4-16.9,103.6-108.1,103.6-108.1l209,96.9
						c0,0-202.1,503.3-399.8,655.6c44.9,13.5,97.5,32.9,151.8,56.1c66-77.2,134.2-181.4,189.6-274.1
						c59.8-100,108.8-275.6,108.8-275.6c27.8,67.4-31.4,405.9-150.7,620.1c98.7,51.4,186.5,107,228.5,152.6L-5698.6,6622z"/>
					<path fill="#B07F55" d="M-6480,3773.1c-50.6-17.5-200.8-155.4-200.9-155.5c-69.3,50.4-142.8,120.7-188.1,183.5
						c8.1,17.4,37.8,81.2,37.8,81.2s59.2-60.9,74.4-76.7v-19.4c0-17.9,11.4-37,22.4-51.2l21.7,7.9c-10.4,12.3-22.8,30.3-22.8,46.4
						v23.9l64.7,98l65.8-70.7v-10.8c0-18.5,9.2-32.7,17.6-42.3l22.1,7.8c-7.5,7-17.9,19.8-17.9,37.4v18.7
						c22.4,31.8,68.4,92.1,105.1,104.7v-136.5L-6480,3773.1L-6480,3773.1z"/>
					<path fill="#B07F55" d="M-6895.2,3843c-11.2,21.2-17.9,40.5-17.9,56.5v167.2l52.4-48.6v-112.6L-6895.2,3843z"/>
					<path fill="#B07F55" d="M-6757.9,3857.3V4075l60.2-56.5v-69.6L-6757.9,3857.3z"/>
					<path fill="#B07F55" d="M-6779.2,3873.8l-60.2,63.2v81.5l60.2,56.1V3873.8z"/>
					<path fill="#B07F55" d="M-6594.4,3888.4v191.1c39.5-21.3,76.1-69.6,90.1-89.4C-6543.8,3970.7-6585.4,3903.4-6594.4,3888.4z"/>
					<path fill="#B07F55" d="M-6676,3956v62.5l60.2,56.1v-176.5L-6676,3956z"/>
					<path fill="#B07F55" d="M-6913.1,4135.2v78.2l52.4,49v-176.2L-6913.1,4135.2z"/>
					<path fill="#B07F55" d="M-6839.4,4086.5v175.4l60.2-56.1v-63.2L-6839.4,4086.5z"/>
					<path fill="#B07F55" d="M-6757.9,4143v62.5l60.2,56.5v-175.4L-6757.9,4143z"/>
					<path fill="#B07F55" d="M-6676,4086.6V4262l60.2-56.5V4143L-6676,4086.6z"/>
					<path fill="#B07F55" d="M-6534.3,4086.5c-18.5,24.6-39.4,47.9-60.2,60.6v58.7l60.2,56.5V4086.5z"/>
					<path fill="#B07F55" d="M-6750.4,4280.6V5987c0,0,106.3-107.5,134.6-136.1c-3.1-46.9-7.5-118.9-7.5-118.9V4281l-63.6,59.1
						L-6750.4,4280.6z"/>
					<path fill="#B07F55" d="M-6786.7,5932.9V4281l-63.6,59.1l-62.8-58.7v1831.8C-6871.9,6088.3-6786.7,5979.5-6786.7,5932.9
						L-6786.7,5932.9z"/>
				</g>
				<g>
					<path fill="#CC092F" d="M-6258.7,5775.4c-13.2-14.8-12.7-56.8-12.8-56.9c-4.1,2.6-9.1,4-14.6,5.3
						c-8.3,12.9-94.8,146.3-148.1,228.5c-13,20-77.1,4.4-85.3,6c-34.1,6.5-82.8,42.6-87.5,55.7c-2.8,7.5,3.7,19.8,10.8,20.2
						c12.1,0.6,23.1-16,62.5-28.1c36.2-11.1,63.3,0.8,94.6-22.4c-1.6,30.2-42.6,53.2-42.6,74.4c26.6,0,41.9-17.6,41.9-17.6
						s-2.2,20.5-2.2,37.8c0,17.6,20.6,27.3,20.6,27.3s11.8-48,25.8-66.9c56.5-76,170.5-231.7,190.4-258.8c-4-21-7.1-36.3-7.1-36.3
						L-6258.7,5775.4L-6258.7,5775.4z"/>
					<path fill="#CC092F" d="M-6556.9,6031.6c-1.3-1.5-3.1-2.4-4.8-2.6c-1.8-0.2-3.5,0.3-4.9,1.5l-20.9,18.3c-2.8,2.4-3,6.7-0.4,9.7
						c2.6,3,7,3.5,9.7,1.1l20.9-18.3C-6554.5,6038.9-6554.3,6034.6-6556.9,6031.6L-6556.9,6031.6z"/>
					<path fill="#CC092F" d="M-6539.7,6047.4c-3.1,0.2-6.5,1.5-9,3.7l-50.9,44.1c-6.7,5.8-7.1,16.4-0.8,23.6s17,8.4,23.6,2.6
						l50.9-44.5c6.7-5.8,7.1-16,0.8-23.2C-6529,6049.2-6534.5,6046.9-6539.7,6047.4z"/>
					<path fill="#CC092F" d="M-6495.9,6088.1c-4-4.5-9.8-6.8-14.9-6.3c-3.1,0.2-6.1,1.5-8.6,3.7l-50.9,44.1
						c-6.7,5.8-7.1,16.4-0.8,23.6s16.6,8.3,23.2,2.6l51.2-44.5C-6490,6105.5-6489.6,6095.3-6495.9,6088.1L-6495.9,6088.1z"/>
					<path fill="#CC092F" d="M-6478.4,6115.4c-3.1,0.2-6.1,1.2-8.6,3.4l-51.2,44.5c-6.6,5.8-6.7,16-0.4,23.2s16.6,8.3,23.2,2.6
						l50.9-44.1c6.6-5.8,7-16.4,0.7-23.6C-6467.7,6116.9-6473.2,6115-6478.4,6115.4L-6478.4,6115.4z"/>
				</g>
			</g>
		</g>
		<path fill="#B07F55" d="M7397.3,3330c83.7,0,142.6,38.2,221.8,73.3c20.8,9.2,39.8,16.7,56.8,22.4c-10.7,9.4-18.9,18.9-21.3,26.9
			c0,0,35.5,6.6,51.6,36.3c0,0-33.8,3.8-39.3,23.6c18.9,1.4,37.7,25.3,37.8,48.3l-47.9-15c0,0,11.6,53.8,11.6,112.2
			c0,29.8-43,65-43,115.6c0,158.8,40,219.8,68.4,268.9c11.1,19.2,20.2,41.3,38.9,58c-82-43.6-142.9-98.2-142.9-148.8v-191.9h-21.3
			v191.9c0,36.7,9,53.9,9,53.9c12.9,40.6,38.9,103.4,55,128.6c-75.4-40.7-113.7-91.8-113.7-110.7v-263.7h-21.3v267.4l4.1,18.3
			c-9.1,13.7-21,30-29.2,35.5c-8.1-5.5-19.7-21.8-28.8-35.5l4.1-18.3v-267.4h-21.3v263.7c0,18.9-38.3,69.9-113.7,110.7
			c16.1-25.3,42.1-88,55-128.6c0,0,9-17.1,9-53.9v-191.9h-21.3v191.9c0,50.6-60.7,105.2-142.5,148.8c18.5-16.7,27.4-38.9,38.5-58
			c31.1-53.7,69.6-121.9,69.6-316c0-72.9-10.8-122.4-29.5-157.1c-5.7-11.4-13.4-41.9,30.3-41.9c22.6,0,74.4,40,74.4,40
			s-2.1-31.9-28.4-50.1c-4.4-3-11.6-12.5-11.6-21.3c0-6.6,11.3-22.9,20.2-26.9c6.1-2.8-89-19.3-89-62.5c0-9,5.6-15,25.4-15
			c25.9,0,68,31,105.5,31c27.7,0,38.6-6.7,66.9-6.7c34.6,0,106.9,65.6,131.6,63.2c-27.6-17.4-72.3-83-139.9-83
			c-23.5,0-44.7,5.2-66.6,5.2c-28.1,0-55.7-25.8-86-25.8c-20.3,0-43,1.1-46.4-4.1c-5.9-9.2-0.6-14.5,4.9-22.1
			c10.3-14.3,39.2-18.4,67.7-19.4c8.5-0.3,17.1-0.4,25.1-0.4C7383.6,3329.7,7391,3330,7397.3,3330L7397.3,3330z"/>
		<path fill="#CC092F" d="M7125.6,3432.7c0,0,17.7-33.5,62.3-33.5c18.7,0,80.3-1.3,80.3-1.3c8.2,21.3,45.7,57,45.7,94.1
			c0,0-38-68.5-144.1-68.5C7143.1,3423.5,7125.5,3432.7,7125.6,3432.7L7125.6,3432.7z"/>
		<path fill="#CC092F" d="M7298,3505.1c0,0-22.6,23.8-27.5,36.5c-22.4-8.5-61.4-48.7-61.4-48.7S7242.2,3512.2,7298,3505.1
			L7298,3505.1z"/>
		<path d="M7262.2,3442c0,0-26.1-8.4-26.1-17.1c0-11.1,12.7-11.1,20.2-2.5C7261.6,3428.4,7262.2,3442,7262.2,3442L7262.2,3442z"/>
		<ellipse cx="7374.4" cy="3442.7" rx="37.3" ry="29.5"/>
		<circle fill="#FFD200" cx="7374.5" cy="3442.7" r="26"/>
		<circle cx="7374.4" cy="3442.7" r="11"/>
	</g>
	<g>
		<g>
			<polygon points="6779.6,6144.8 6898,6209.4 6869.3,6341.1 6750.9,6276.5 			"/>
			<path d="M6228.3,4879.4l-42.6,19.5l481.7,1055h51.2L6228.3,4879.4z M6796.3,6123.6l-34.8,35.9l21.7,47.9l42.3-19.4L6796.3,6123.6
				z"/>
			<path d="M6377.9,5711.2c0,0,40.6,83.8,71.4,95.3c-15.9-4.3-67.7,14.7-67.7,14.7s91.3,81.6,168.8,86.9
				c65.7,4.5,97.6-28.3,97.6-28.3l-13.2-69.6c0,0-40.2-48.5-104.5-70.9C6465.3,5716.7,6377.9,5711.3,6377.9,5711.2L6377.9,5711.2z"
				/>
			<path d="M6683.8,5561.1c0,0-56,48-71.4,103.5c-15.3,55.6,10,118.7,10,118.7l47.1,87.8c0,0,65.2-34.7,93-86.6s17.6-122,17.6-122
				s-51.7,19.2-58.3,27.8C6732.7,5632.7,6683.8,5561.1,6683.8,5561.1L6683.8,5561.1z"/>
			<path d="M6503.7,5538.7c0,0-63.7,21.5-125.6,17.8c-58.9-3.6-108-53.1-108-53.1s48.9-33.1,73-28.7c-26.5-9.7-65-76.1-65-76.1
				s54.7-16.5,103.1,1.8c48.5,18.3,90.7,71.4,90.7,71.4L6503.7,5538.7L6503.7,5538.7z"/>
			<path d="M6525.7,5227.5c0,0,31.9,66,24.3,88.9c9.9-15.3,47.3-39,47.3-39s22.6,106.8,1,172.8s-87.5,91.1-87.5,91.1l-72.6-141.3
				c0,0-10.8-52.3,11.8-93.8C6472.6,5264.8,6525.7,5227.5,6525.7,5227.5L6525.7,5227.5z"/>
			<path d="M6111.1,5052.8c0,0,68.9-7.2,131.9,18.9c52.7,21.9,68.8,61.6,68.8,61.6l25.9,69.5c0,0-75,28.1-134.2,6.6
				s-102.7-92.6-102.7-92.6s41.4-15.7,57.1-9.8C6135,5096.9,6111.1,5052.8,6111.1,5052.8L6111.1,5052.8L6111.1,5052.8z"/>
			<path d="M6327.7,4923.7c0,0,30.2,38.8,31.1,83.5c8.1-23.7,45.8-50,45.8-50s38.8,93.9,30.3,160.6s-64.4,106.1-64.4,106.1
				l-69.6-132.2c0,0-22.7-54.2-16-96.2C6291.6,4953.6,6327.7,4923.7,6327.7,4923.7L6327.7,4923.7z"/>
			<path d="M6089.2,4671c0,0-12.5,72,8.8,113.5c19,37,31.1,45.1,31.1,45.1c-36.2-23.9-90.9-25.9-90.9-25.9s19.5,78.3,66,114.1
				c46.5,35.7,118.3,27.4,118.3,27.4s47.2-62.8,43.9-130.5c-3.3-67.7-57-140.2-57-140.2s-21.2,44-23.1,76.8
				C6172.5,4717.2,6089.1,4671,6089.2,4671L6089.2,4671z"/>
			<path d="M6651.7,5876.9l1.9,25.8c42.9,0.4,49.3-3.9,60.3,9.7c7.3,9,24.8,16.9,42.3,8.9s25.4-29.1,17.4-46.6s-24.3-21.3-40-18.2
				c-9.6,1.9-16,9.6-24.2,13.8C6693.9,5878.3,6651.7,5876.9,6651.7,5876.9L6651.7,5876.9z"/>
			<path d="M6647.9,5857.1l20.9,15.3c-22.4,36.6-29.4,39.8-23.7,56.3c3.8,11,1.2,29.9-14.9,40.6c-16.1,10.6-38.1,6.1-48.7-9.9
				c-10.6-16.1-5.2-31.9,5.7-43.6c6.7-7.2,16.6-8.5,24.5-13.2C6626.8,5893.7,6647.9,5857.1,6647.9,5857.1L6647.9,5857.1z"/>
			<path d="M6502.6,5550.3l1.9,25.8c42.9,0.4,49.3-3.9,60.3,9.6c7.3,9,24.8,16.9,42.3,8.9s25.4-29,17.4-46.6
				c-8-17.5-24.3-21.3-40-18.2c-9.6,1.9-16,9.6-24.1,13.8C6544.8,5551.7,6502.6,5550.3,6502.6,5550.3L6502.6,5550.3z"/>
			<path d="M6511.3,5559.4l18.3,18.4c-27.8,32.7-35.2,34.7-32.2,51.9c2,11.4-3.5,29.8-21,37.8s-38.6,0.2-46.6-17.4
				c-8-17.5-0.2-32.3,12.4-42.2c7.8-6,17.7-5.8,26.2-9.2C6484.7,5592.3,6511.3,5559.5,6511.3,5559.4L6511.3,5559.4z"/>
			<path d="M6358.1,5244.6l1.9,25.8c42.9,0.4,49.3-3.9,60.3,9.7c7.3,9,24.8,16.9,42.3,8.9s25.4-29,17.4-46.6
				c-8-17.5-24.3-21.3-40-18.2c-9.6,1.9-16,9.6-24.2,13.8C6400.3,5246,6358.1,5244.6,6358.1,5244.6L6358.1,5244.6z"/>
			<path d="M6370,5239.2l18.3,18.4c-27.8,32.7-35.2,34.7-32.2,51.9c2,11.4-3.5,29.8-21,37.8s-38.6,0.1-46.6-17.4
				s-0.2-32.3,12.4-42.2c7.8-6,17.7-5.8,26.3-9.2C6343.4,5272,6370,5239.2,6370,5239.2L6370,5239.2z"/>
			<path d="M6204.1,4921.8l1.9,25.8c42.9,0.4,49.3-3.9,60.3,9.7c7.3,9,24.8,16.9,42.3,8.9s25.4-29.1,17.4-46.6s-24.3-21.3-40-18.2
				c-9.6,1.9-16,9.6-24.1,13.8C6246.4,4923.2,6204.1,4921.8,6204.1,4921.8L6204.1,4921.8z"/>
			<path d="M6216.1,4916.4l18.2,18.4c-27.8,32.7-35.2,34.7-32.2,51.9c2,11.4-3.5,29.8-21,37.8s-38.6,0.2-46.6-17.4
				c-8-17.5-0.2-32.3,12.4-42.2c7.8-6,17.7-5.8,26.3-9.2C6189.5,4949.3,6216,4916.4,6216.1,4916.4L6216.1,4916.4z"/>
		</g>
		<g>
			<polygon fill="#FFD200" points="6796.7,6182.2 6870.1,6222.2 6852.3,6303.9 6778.9,6263.9 			"/>
			<path fill="#FFD200" d="M6475.3,5473.8c-15.4,6.4-38.2-60.6-55-97.3c-17.2-37.7-52.1-95.7-42.2-100.2c10.9-5,25.2,25.5,42.8,64
				C6438.6,5378.8,6489.7,5467.7,6475.3,5473.8L6475.3,5473.8z"/>
			<path fill="#FFD200" d="M6317.3,5121c-15.4,6.4-32.2-37.5-49-74.2c-17.2-37.7-33.9-64.3-24-68.8c10.9-5,27,28,41,58.8
				C6299,5066.8,6331.7,5115,6317.3,5121L6317.3,5121z"/>
			<path fill="#FFD200" d="M6682.9,5920.8c-12.1,3.2-64.8-107.1-107.4-200.5s-74.3-168.9-64.4-173.4c10.9-5,45.4,83.2,88,176.6
				S6691.9,5918.4,6682.9,5920.8L6682.9,5920.8z"/>
		</g>
		<g>
			<path fill="#097754" d="M6110.3,4714.7c0,0-1.9,52.6,15.5,82.4s56.3,41.8,56.3,41.8s1.9-52.6-15.5-82.4
				C6149.2,4726.6,6110.3,4714.7,6110.3,4714.7z"/>
			<path fill="#097754" d="M6074,4833.7c0,0,45.7,2.7,72.1,22.9c26.4,20.2,36.6,62.4,36.6,62.4s-30.3,3.1-56.7-17.1
				C6099.6,4881.6,6074,4833.7,6074,4833.7z"/>
			<path fill="#097754" d="M6217.4,4727.5c0,0-15.2,34.8-13.4,72.4c1.7,37.6,23.7,79.9,23.7,79.9s19.8-45.1,18.1-82.7
				C6243.9,4759.6,6222.7,4738.2,6217.4,4727.5L6217.4,4727.5z"/>
			<path fill="#097754" d="M6140.4,5066.2c0,0,22.4,31.3,57,48.4c34.5,17.1,86,17.7,86,17.7s-25.7-33.3-60.2-50.4
				C6188.7,5064.8,6140.4,5066.2,6140.4,5066.2L6140.4,5066.2z"/>
			<path fill="#097754" d="M6151.5,5139c0,0,16.5,32.3,46.6,46.1c30.2,13.9,91.9,12.7,91.9,12.7s-23.7-30.2-53.8-44
				C6206.1,5139.9,6151.5,5139,6151.5,5139L6151.5,5139z"/>
			<path fill="#097754" d="M6325.2,4966.7c0,0-18.2,30.1-16.4,63.3c1.8,33.2,23.6,69.5,23.6,69.5s15.3-41.6,13.5-74.8
				C6344.1,4991.5,6325.2,4966.7,6325.2,4966.7L6325.2,4966.7z"/>
			<path fill="#097754" d="M6392.3,5009.3c0,0-31.2,41.9-35.7,84.9s17.7,87.2,17.7,87.2s37.7-37.8,42.2-80.9
				C6421,5057.5,6392.3,5009.3,6392.3,5009.3L6392.3,5009.3z"/>
			<path fill="#097754" d="M6306.3,5406.7c0,0,3.7,15.5,16.8,31.9c13,16.4,35.3,33.8,35.3,33.8s21.5-6.9,48.3-1.1
				s62.4,29.7,62.4,29.7s-38.3-57.2-78.1-79.5C6351.2,5399.3,6306.4,5406.7,6306.3,5406.7L6306.3,5406.7z"/>
			<path fill="#097754" d="M6302.4,5505c0,0,49.6-21.2,90.5-15.7s77.7,37.8,77.7,37.8s-55.2,19.1-96.1,13.6
				C6333.6,5535.2,6302.4,5505,6302.4,5505L6302.4,5505z"/>
			<path fill="#097754" d="M6512.1,5274.3c0,0-43.9,46.5-47.6,86.8s35.6,77.9,35.6,77.9s-1.9-25.9,4.8-42.9
				c6.8-17,21.1-35.2,21.1-35.2s6.1-20.8,3.8-37.4C6526.6,5300.3,6512.1,5274.3,6512.1,5274.3L6512.1,5274.3z"/>
			<path fill="#097754" d="M6575.1,5328.2c0,0-41.4,41.9-52.3,86.7c-10.9,44.8,8.5,92.6,8.5,92.6s37.6-29.7,48.6-74.5
				C6590.8,5388.1,6575.1,5328.2,6575.1,5328.2L6575.1,5328.2z"/>
			<path fill="#097754" d="M6678.7,5598.3c0,0,18.7,39.1,23.5,71.8c4.8,32.7,0.4,44,0.4,44s-19.4,19-28.1,30.2
				c-11.2,14.4-12.8,40.7-12.8,40.7s-38.9-57.8-32.9-100.1C6634.8,5642.8,6678.7,5598.3,6678.7,5598.3L6678.7,5598.3z"/>
			<path fill="#097754" d="M6760.7,5688.8c0,0-49.8,32.9-69.6,66.6c-19.8,33.7-9.5,68.3-9.5,68.3s35.5-3.1,55.3-36.9
				C6756.6,5753.2,6760.7,5688.8,6760.7,5688.8L6760.7,5688.8z"/>
			<path fill="#097754" d="M6433.4,5827.8c0,0,71.8-2,115.7,8.8c43.9,10.8,59.8,34.3,59.8,34.3s-49.3,23.1-93.2,12.3
				C6471.8,5872.4,6433.4,5827.8,6433.4,5827.8L6433.4,5827.8z"/>
			<path fill="#097754" d="M6421.3,5742.6c0,0,32.4,50.2,74.3,68.4c57.7,25.1,124.5,12.9,124.5,12.9s-36.3-44.5-86.2-64.1
				C6483.8,5740.2,6421.3,5742.6,6421.3,5742.6L6421.3,5742.6z"/>
		</g>
		<path d="M8878.9,4756.8l9.4,19.8c0,0-15.2,5.2-22.1,18.7c-6.9,13.5,4.5,32.5,4.5,32.5s-78.9-6.9-91.3,1.1
			c-11.2,7.2,4.7,61.9-2.6,108.1c-10.2,64.4-35.6,59-36.6,71.4c-1,12.1,9.7,31,9.7,31s-14.8,4.7-18,10.8c-5.1,9.9,3.5,28.3-2.6,40.4
			c-34.3,67.4-85,166.8-118.6,232.6c-4.7,9.2-17.3,12.7-23.6,25.1c-5.8,11.4-1.1,28-1.1,28s-22.2,1.3-29.9,16.5
			c-8.2,16.1-3.4,37.8-3.4,37.8s-14,1.8-21,15.3c-7.4,14.5,5.1,22.1,1.9,28.4c-45.1,88.4-98.1,192.6-130.5,256.2
			c-11.9,23.4-53.6,28.1-77.8,75.5c-23.5,46.1,10.1,80,10.1,80s-34.9,3.2-44.1,21.3c-9.4,18.5-2,46.6,23.2,59.5
			c25.2,12.8,52.6,2.4,62.1-16.1c9.3-18.2-9.4-48.2-9.4-48.2s47.2,6.8,70.7-39.3c24.2-47.5,3.8-83.6,15.7-107
			c32.4-63.6,85.5-167.8,130.5-256.2c3.3-6.4,16.6-0.9,23.9-15.3c6.9-13.5,0-25.8,0-25.8s20.6-9,28.8-25.1c7.7-15.1-4.1-34-4.1-34
			s16.2-5.8,22.1-17.2c6.3-12.4,1.7-24.5,6.3-33.7c33.5-65.8,84.2-165.2,118.6-232.6c6.2-12.1,26-16.2,31-26.2
			c3.2-6.2-1.9-20.9-1.9-20.9s21.8-2.2,31-10.1c9.5-8.2-9.8-25.7,36.3-71.8c33-33.1,86.3-52.5,85.6-65.8
			c-0.8-14.7-52.7-74.4-52.7-74.4s21.9-1.8,28.8-15.3c6.9-13.5,2.3-29.2,2.3-29.2l21.7-3.7v-102.8L8878.9,4756.8z M8162,6189.1
			c-3.3,6.4-3.9,15.2,0,22.8c0,0-26.2-8.2-35.2-3.7c-8.5,4.2,0,127.5,0,127.5s104.4-65.9,102.8-75.2c-1.7-9.9-23.6-26.6-23.6-26.6
			c8.5-1.4,15.1-6.7,18.3-13.1c3.4-6.8,3.9-26.1-19.8-38.2c-8.9-4.5-16.8-5.9-23.2-5.2C8170.8,6178.6,8164.1,6184.9,8162,6189.1
			L8162,6189.1z"/>
		<g>
			<path fill="#FFD200" d="M8897.9,4760.9l49.4,25.1l-0.7-59.5L8897.9,4760.9z"/>
			<path fill="#FFD200" d="M8878.8,4796.8c-6.3,12.4-0.2,28.4,13.8,35.5s30.3,2.7,36.7-9.7c6.3-12.4,0.2-28.4-13.8-35.5
				c-5.3-2.7-10.8-3.7-16.1-3.4C8890.6,4784.3,8882.8,4789,8878.8,4796.8L8878.8,4796.8z"/>
			<path fill="#FFD200" d="M8793.9,4842.1c-5.2,3.4,1.9,47.8,0.4,85.6c-1.4,35.7-12.8,45.7-19.1,58c-5.8,11.3-26.5,24.7-26.5,24.7
				l17.2,17.2c0,0,11.2-17.4,28.8-52c20.8-40.8,20.1-114.6,26.2-118.5c5.3-3.4,48.6-14.2,48.6-14.2s-39.8-2.1-61.7-1.9
				C8800.5,4841,8795.1,4841.3,8793.9,4842.1z"/>
			<path fill="#FFD200" d="M8798.5,5047.4c0,0,5.7-16,25.8-55.4c24.2-47.5,75.8-81.9,77-90.5c1.3-8.9-17.9-50.5-17.9-50.5
				s-45.6,8.7-52,15c-6.2,6-3.5,67.7-27.7,115.2c-20,39.4-29.9,53.9-29.9,53.9L8798.5,5047.4z"/>
			<path fill="#FFD200" d="M8914.8,4904.9c0.4,7.2-59.6,50.1-80.4,90.9c-17.6,34.6-25.1,53.9-25.1,53.9l23.9,3.7
				c0,0-1.7-24.6,4.1-35.9c6.2-12.3,7.9-27.3,35.9-49.4c29.7-23.4,69.9-43.9,69.6-50.1c-0.3-5.7-44.9-61-44.9-61
				S8914.4,4898.6,8914.8,4904.9L8914.8,4904.9z"/>
			<path fill="#FFD200" d="M8739,5171.5c36.1-70.8,47.1-75.6,51.6-84.5c4.9-9.6,3.7-22.5-12.3-30.7c-6-3.1-11.2-3.8-15.7-3.4
				c-7.5,0.8-13,5.6-16.1,11.6c-4.5,8.9-2.1,20.9-38.2,91.6l-81.9,160.4c0,0-8.6,15.8,7.5,23.9c16.1,8.2,23.2-8.2,23.2-8.2
				L8739,5171.5z"/>
			<path fill="#FFD200" d="M8594.3,5355.5c-4.5,8.8,3.2,21.7,17.2,28.8c14,7.1,29.2,5.8,33.7-3s-3.5-21.7-17.6-28.8
				c-7-3.6-14.1-5-20.2-4.5C8601.3,5348.6,8596.5,5351.2,8594.3,5355.5z"/>
			<path fill="#FFD200" d="M8564,5401.2c-5.8,11.3,3.2,27.6,20.2,36.3c17,8.6,35.4,6.5,41.1-4.9c5.8-11.4-3.2-27.6-20.2-36.3
				c-6.4-3.2-12.7-4.9-18.7-5.2C8576.4,5390.6,8567.6,5394.1,8564,5401.2L8564,5401.2z"/>
			<path fill="#FFD200" d="M8544.9,5452c-4.5,8.8,3.2,21.6,17.2,28.8c14,7.1,29.2,5.8,33.7-3s-3.2-21.7-17.2-28.8
				c-7-3.6-14.5-5-20.6-4.5C8551.9,5445.1,8547.1,5447.6,8544.9,5452L8544.9,5452z"/>
			<path fill="#FFD200" d="M8532.6,5500.7c0,0-90.9,179-123,242c-10.3,20.1-53.4,32.7-70.3,65.8c-17,33.4-5,64.6,17.2,75.9
				s54.8,3.1,71.8-30.3c16.9-33.2,1.7-75.6,12-95.7c32.1-63,123-242,123-242s9-15.8-7.1-23.9c-4-2-7.5-2.3-10.5-1.9
				C8536.8,5491.7,8532.6,5500.7,8532.6,5500.7z"/>
			<path fill="#FFD200" d="M8302.5,5916.1c-6.8,13.4,1,31.2,17.6,39.6c16.6,8.5,35.8,4.4,42.6-9s-1.4-31.2-17.9-39.6
				c-6.2-3.2-12.6-4.7-18.7-4.5C8315.9,5903,8306.8,5907.8,8302.5,5916.1L8302.5,5916.1z"/>
			<path fill="#FFD200" d="M8181.4,6189.5c-5.2,0.2-9.5,1.8-11.2,5.2c-3.5,6.8,3.7,17.6,16.1,23.9c12.4,6.3,25.3,5.7,28.8-1.1
				c3.5-6.8-3.7-17.6-16.1-23.9C8192.8,6190.5,8186.6,6189.3,8181.4,6189.5L8181.4,6189.5z"/>
			<path fill="#FFD200" d="M8138.7,6223.2v88.3l71.8-51.6c0,0-9.7-17.2-31-28.1S8138.7,6223.2,8138.7,6223.2L8138.7,6223.2z"/>
		</g>
	</g>
	<g>
		<path fill="#FFD200" d="M8184.2,4257.5c0-48.4,63.6-96.1,63.6-96.1H6697.3c0,0,63.6,47.7,63.6,96.1v1154.1
			c0,30.4,9.4,50.2,24.3,69.6c14.9,20.8,46.7,49.6,79.6,71.1c101.8,66.1,272.1,135.9,400.9,194.5c107.3,48.8,151,68.5,206.8,137.6
			c55.8-69.1,99.8-88.8,207.2-137.6c128.8-58.6,299.1-128.3,400.9-194.5c33-21.4,64.8-50.2,79.7-71.1c14.9-19.4,23.9-39.1,23.9-69.6
			L8184.2,4257.5z"/>
		<path fill="#CC092F" d="M6797.5,4910.4v-653c0-37-18.7-59.5-18.7-59.5h1387.5c0,0-18.7,22.5-18.7,59.5l0.4,653L7472.7,5115
			L6797.5,4910.4z"/>
		<path fill="#0046AE" d="M8147.9,4910.4l-418.1-7.9h-514.2l-418.1,7.9v501.1c0,25.2,26.1,84.2,176.9,159.3
			c249.2,124.2,440.7,182.2,498.1,252.8c57.4-70.7,248.9-128.6,498.1-252.8c150.8-75.1,176.9-134.1,176.9-159.3L8147.9,4910.4z"/>
		<g>
			<path d="M7719.7,4884.3c0,0,241.2-60.8,241.2-318.6c0-201.4-241.8-301.2-248.7-349.3c-23.6,83.1,80.8,198,80.8,334
				c0,176-129.8,184.4-129.8,184.4c-30.4,0-42.7,21.7-54.6,21.7c-25.5-2.7-37.6-35.2-62.8-35.2c-23.7,0-41.9,36.7-73.3,36.7
				s-49.2-36.7-72.9-36.7c-25.2,0-37.3,32.5-62.8,35.2c-11.9,0-24.2-21.7-54.6-21.7c0,0-129.8-8.4-129.8-184.4
				c0-136,104.4-250.8,80.8-334c-6.9,48-248.7,147.9-248.7,349.3c0,257.8,241.2,318.6,241.2,318.6l-68.8,125.3
				c0,0,99.7,5,152.6,50.1c63.8,54.4,57.6,169.7,57.6,253.6c0,66.1-8.4,135.8-42.3,164.5c-45.5,38.6-76.3,41.5-76.3,86.8
				c0,37.8,29.1,45.4,76.3,70.3c60.5,31.9,57.7,74.8,147.7,74.8s87.6-42.8,148.1-74.8c47.3-24.9,76.3-32.5,76.3-70.3
				c0-45.3-30.8-48.2-76.3-86.8c-33.9-28.8-42.3-98.5-42.3-164.5c0-83.9-6.2-199.1,57.6-253.6c52.9-45.1,152.6-50.1,152.6-50.1
				L7719.7,4884.3z"/>
			<path d="M7472.5,4234.3l-41.9,118.9l-114.1-54.2l54.2,114.1l-118.9,42.3l118.9,42.3l-54.2,113.7l114.1-54.2l41.9,118.9
				l42.3-118.9l114.1,54.2l-54.2-113.7l118.9-42.3l-118.9-42.3l54.2-114.1l-114.1,54.2L7472.5,4234.3z"/>
			<path d="M7215.6,4902.6c0,0-148.9-36.4-204.6-110c-97.3,87.5-213.5,117.8-213.5,117.8s121.3,54.8,213.5,124.5
				C7053.5,4974.1,7215.6,4902.6,7215.6,4902.6L7215.6,4902.6z"/>
			<path d="M7729.8,4902.6c0,0,162.1,71.5,204.6,132.4c92.2-69.8,213.5-124.5,213.5-124.5s-116.3-30.3-213.5-117.8
				C7878.7,4866.2,7729.8,4902.6,7729.8,4902.6L7729.8,4902.6z"/>
			<path d="M7276.6,5061.1l-58,58l58,58l58-58L7276.6,5061.1z"/>
			<path d="M7668.9,5061.1l-58,58l58,58l58-58L7668.9,5061.1z"/>
			<path d="M7262,5399.6c0,73.2-7.1,111.8-7.1,111.8s81.7-24.1,98-107c7.6-38.9,16.1-182-23.2-206.4l-106.6-20.9
				C7234.6,5205.6,7262,5293.8,7262,5399.6L7262,5399.6z"/>
			<path d="M7615.7,5198c-39.3,24.4-30.8,167.6-23.2,206.4c16.3,82.9,98,107,98,107s-7.1-38.6-7.1-111.8
				c0-105.8,27.4-194,38.9-222.5L7615.7,5198z"/>
			<path d="M7010.7,5202.2c-36.8,9.2-59,46.6-49.7,83.4c1.4,5.6,3.7,10.8,6.4,15.7c-5.4-1.8-10.9-3-16.8-3.4c-2.4-0.2-4.8-0.1-7.1,0
				c-34.8,1.2-63.8,28.5-66.2,64c-2.6,37.8,26.1,70.3,64,72.9c5.6,0.4,11.1,0.2,16.4-0.8c-3.3,4.5-6.1,9.2-8.2,14.6
				c-14.2,35.2,3,75.6,38.1,89.8c35.2,14.1,75.2-3.4,89.4-38.5c2.2-5.4,3.4-10.6,4.1-16.1c3.2,4.5,7.1,8.6,11.6,12.3
				c29.1,24.3,72.5,20.5,96.9-8.6c24.3-29.1,20.5-72.2-8.6-96.5c-4.4-3.7-9.3-6.6-14.2-9c5.3-1.7,10.4-4,15.3-7.1
				c32.1-20.1,41.8-62.9,21.7-95c-13.8-22.1-38.1-33.4-62.5-31.8c-11.1,0.7-22.1,4.2-32.2,10.5c-4.9,3.1-9.3,6.5-13.1,10.5
				c0-5.5-0.5-11.2-1.9-16.8c-8.1-32.2-37.6-53.4-69.6-52C7020,5200.5,7015.3,5201,7010.7,5202.2L7010.7,5202.2z"/>
			<path d="M7739.9,5401.9c7.4,70,64.3,128.7,134.6,145.5c-12-19.6-20-41.5-22.4-64.7c-8.8-83.1,55.4-150.4,143.2-150.4
				c13.8,0,27.2,1.7,40.4,4.9c-31-50.7-89.2-86-152.6-86C7795.3,5251.2,7731.1,5318.8,7739.9,5401.9z"/>
		</g>
		<g>
			<path fill="#FFD200" d="M7117.2,4550.3c0,132.4,70.6,210.5,164.9,210.5c18,0,37.7,24.3,54.6,24.3c27.6,0,46-30.7,62.8-30.7
				c21.4,0,35.8,33.7,72.9,33.7s51.9-33.7,73.3-33.7c16.8,0,35.2,30.7,62.8,30.7c17,0,36.6-24.3,54.6-24.3
				c94.3,0,164.9-78.1,164.9-210.5c0-108-90.7-239.7-80.8-261c0,0,176.9,126.9,176.9,276.4c0,240.8-244.2,300.3-244.2,300.3
				l55,123.8c0,0-75.7,11.4-121.9,48.6c-61.6,49.7-62.5,184-62.5,274.9c0,107,4,152.4,42.6,181.4c40.8,30.6,71.4,37.2,71.4,68.4
				c0,27.2-31.7,38.3-72.9,56.5c-46.8,20.7-51.5,56.5-119.3,56.5s-72.1-35.8-118.9-56.5c-41.2-18.1-72.9-29.3-72.9-56.5
				c0-31.2,30.7-37.8,71.4-68.4c38.7-29,42.6-74.4,42.6-181.4c0-90.8-0.8-225.2-62.5-274.9c-46.2-37.3-121.9-48.6-121.9-48.6
				l55-123.8c0,0-244.2-59.5-244.2-300.3c0-149.5,176.9-276.4,176.9-276.4C7207.9,4310.6,7117.2,4442.3,7117.2,4550.3L7117.2,4550.3
				z M7380.1,5544.8c-48,0-78.5,10.1-78.5,24.7s30.6,24.3,78.5,24.3c12.8,0,27.3-7.4,27.3-24.3S7392.9,5544.8,7380.1,5544.8
				L7380.1,5544.8z M7565.3,5544.8c-12.8,0-27.3,7.8-27.3,24.7c0,16.9,14.5,24.3,27.3,24.3c48,0,78.5-9.7,78.5-24.3
				C7643.8,5554.9,7613.2,5544.8,7565.3,5544.8L7565.3,5544.8z"/>
			<path fill="#FFD200" d="M7472.9,4314.3l26.9,75.9l72.5-34.8l-34.4,72.9l75.6,26.9l-75.6,26.9l34.4,72.5l-72.5-34.4l-27.3,75.5
				l-26.9-75.5l-72.5,34.4l34.4-72.5l-75.5-26.9l75.5-26.9l-34.4-72.9l72.5,34.8L7472.9,4314.3L7472.9,4314.3z"/>
			<path fill="#FFD200" d="M7135.9,4907.1l-124.9,92.7l-1.5,1.9l-2.6-2.2l-138.4-86.8c0,0,88.3-30.4,140.2-83.4
				C7057.9,4885.6,7135.9,4907.1,7135.9,4907.1L7135.9,4907.1z"/>
			<path fill="#FFD200" d="M8076.8,4912.7c0,0-92.1,45.9-138.4,86.8l-2.6,2.2l-1.5-1.9c-43.7-50.2-124.9-92.7-124.9-92.7
				s78-21.5,127.1-77.8C7988.5,4882.3,8076.8,4912.7,8076.8,4912.7z"/>
			<path fill="#FFD200" d="M7276.6,5088.8l30.3,30.3l-30.3,30.7l-30.7-30.7L7276.6,5088.8z"/>
			<path fill="#FFD200" d="M7668.9,5088.8l30.7,30.3l-30.7,30.7l-30.3-30.7L7668.9,5088.8z"/>
			<path fill="#FFD200" d="M7317.7,5221.2c21.2,29.2,17.6,76.4,17.6,142.1c0,66.2-49.7,91.6-49.7,91.6
				c0-159.2-16.4-197.5-25.1-245.7L7317.7,5221.2z"/>
			<path fill="#FFD200" d="M7684.9,5209.2c-8.7,48.2-25,86.5-25,245.7c0,0-49.7-25.4-49.7-91.6c0-65.7-3.6-112.9,17.6-142.1
				L7684.9,5209.2L7684.9,5209.2z"/>
			<path id="leaf" fill="#FFD200" d="M7082.5,5269.5c1.5,6,1.7,11.8,1.1,17.6c-0.4,4.8-1.7,9.1-3.4,13.5c-8.3-3-17.2-4.5-26.6-4.5
				c-23.1,0-43.7,10.2-58,26.2c-3.7-3.3-7-7-9.7-11.2c-3.1-4.7-5.7-9.9-7.1-15.7c-7.2-28.6,10.3-57.5,38.9-64.7
				c3.6-0.9,7.3-1.4,10.8-1.5C7053.4,5228,7076.2,5244.5,7082.5,5269.5L7082.5,5269.5z"/>
			<g transform="rotate(72,838.89,486.468)">
				<path id="leaf_1_" fill="#FFD200" d="M7162.2,5369.3c-5.2,3.3-10.7,5.2-16.4,6.5c-4.7,1.1-9.2,1.2-13.8,1
					c0.3-8.8-1.1-17.8-3.9-26.6c-7.1-21.9-23.2-38.5-42.8-47c2-4.6,4.5-8.8,7.7-12.7c3.6-4.4,7.7-8.5,12.7-11.6
					c25-15.7,57.9-8,73.6,17c2,3.1,3.5,6.5,4.8,9.9C7192.6,5328.8,7184,5355.6,7162.2,5369.3L7162.2,5369.3z"/>
			</g>
			<g transform="rotate(144,838.89,486.468)">
				<path id="leaf_2_" fill="#FFD200" d="M7092,5475.9c-4.7-3.9-8.3-8.6-11.2-13.6c-2.5-4.1-4-8.4-5.2-12.9
					c8.5-2.4,16.6-6.5,24.1-12c18.7-13.6,29.4-33.9,31.5-55.3c5,0.5,9.7,1.5,14.5,3.4c5.3,2,10.4,4.7,15,8.5
					c22.6,18.9,25.5,52.6,6.6,75.2c-2.4,2.8-5.1,5.4-7.9,7.6C7139.8,5492.4,7111.7,5492.5,7092,5475.9L7092,5475.9z"/>
			</g>
			<g transform="rotate(216,838.89,486.468)">
				<path id="leaf_3_" fill="#FFD200" d="M6968.8,5442.1c2.3-5.7,5.6-10.5,9.4-14.9c3.2-3.6,6.7-6.4,10.6-8.9
					c4.9,7.3,11.3,13.8,18.8,19.2c18.7,13.6,41.4,17.5,62.3,12.9c1.1,4.9,1.6,9.7,1.3,14.8c-0.3,5.6-1.3,11.4-3.5,16.9
					c-11,27.3-42.2,40.5-69.5,29.5c-3.4-1.4-6.7-3.2-9.7-5.2C6968,5492.7,6959.2,5466,6968.8,5442.1L6968.8,5442.1z"/>
			</g>
			<g transform="rotate(288,838.89,486.468)">
				<path id="leaf_4_" fill="#FFD200" d="M6962.9,5314.5c6.1,0.4,11.8,2.1,17.1,4.4c4.4,1.9,8.1,4.4,11.8,7.4
					c-5.4,6.9-9.6,15-12.5,23.9c-7.1,21.9-3.9,44.7,7,63.2c-4.3,2.5-8.8,4.5-13.7,5.8c-5.5,1.5-11.2,2.3-17.1,1.9
					c-29.4-2-51.5-27.6-49.5-57c0.2-3.7,1-7.4,1.9-10.8C6914.5,5329.3,6937.2,5312.7,6962.9,5314.5L6962.9,5314.5z"/>
			</g>
			<circle fill="#FFD200" cx="7053.7" cy="5374.2" r="51.6"/>
			<path fill="#FFD200" d="M7959.8,5304.6c-85.7,16.6-147.3,92.3-138.4,180.6c-27.3-22.6-47.3-53.1-50.9-86.8
				c-6.9-65.6,40.7-116.3,112.6-116.3C7910.6,5282.2,7937,5290.6,7959.8,5304.6L7959.8,5304.6z"/>
		</g>
	</g>
</g>
</svg>
