<?xml version="1.0" encoding="UTF-8"?>
<svg id="Logo" xmlns="http://www.w3.org/2000/svg" viewBox="0 0 215 50">
  <defs>
    <style>
      .cls-1 {
        fill: #fff;
      }

      .cls-2 {
        fill: #6d69c1;
      }

      .cls-3 {
        fill: #60c9ca;
      }
    </style>
  </defs>
  <g id="Tiles">
    <g id="I">
      <rect class="cls-3" width="50" height="50" rx="2.5" ry="2.5"/>
      <g id="I-2">
        <path class="cls-1" d="m27.84,37.6h-5.68V12.4h5.68v25.21h0Z"/>
      </g>
    </g>
    <g id="I2">
      <rect class="cls-3" x="55" width="50" height="50" rx="2.5" ry="2.5"/>
      <g id="I-3">
        <path class="cls-1" d="m82.84,37.6h-5.68V12.4h5.68v25.21h0Z"/>
      </g>
    </g>
    <g id="O">
      <rect class="cls-3" x="110" width="50" height="50" rx="2.5" ry="2.5"/>
      <g id="O-2">
        <path class="cls-1" d="m134.89,38.03c-3.61,0-6.55-1.17-8.82-3.52s-3.41-5.41-3.41-9.18c0-3.98,1.15-7.21,3.46-9.67s5.37-3.69,9.18-3.69c3.6,0,6.51,1.18,8.73,3.53s3.33,5.46,3.33,9.32-1.15,7.15-3.45,9.58c-2.3,2.43-5.31,3.64-9.01,3.64h0Zm.25-21.18c-1.99,0-3.57.75-4.75,2.24s-1.76,3.47-1.76,5.93.59,4.47,1.76,5.92,2.71,2.18,4.61,2.18,3.51-.71,4.66-2.12,1.72-3.37,1.72-5.88-.56-4.65-1.67-6.1-2.64-2.18-4.57-2.18h0Z"/>
      </g>
    </g>
    <g id="T">
      <rect class="cls-2" x="165" width="50" height="50" rx="2.5" ry="2.5"/>
      <path class="cls-1" d="m200.02,17.02h-7.19v20.58h-5.7v-20.58h-7.15v-4.62h20.04v4.62h0Z"/>
    </g>
  </g>
</svg>