<?xml version="1.0" encoding="UTF-8"?>
<svg id="Logo" xmlns="http://www.w3.org/2000/svg" viewBox="0 0 226 52">
  <defs>
    <style>
      .cls-1 {
        fill: #fff;
      }

      .cls-2 {
        fill: #36376d;
      }

      .cls-3 {
        fill: #595bb4;
      }

      .cls-4 {
        fill: #427576;
      }

      .cls-5 {
        fill: #6dc1c3;
      }
    </style>
  </defs>
  <g id="Tiles">
    <g id="I">
      <g id="SHADOW">
        <rect class="cls-4" x="-8.3196" y="24.5858" width="68.6391" height="2.8284" transform="translate(-10.7696 26.0019) rotate(-45.003)"/>
        <rect class="cls-4" x="2" y="2" width="50" height="50" rx="2.5" ry="2.5"/>
      </g>
      <rect id="Rect" class="cls-5" width="50" height="50" rx="2.5" ry="2.5"/>
      <path class="cls-1" d="m18.9,38.9h1.4c1.3,0,2.1-.3,2.4-1,.3-.6.4-3.7.4-9.3v-7.3c0-5.7-.1-8.9-.3-9.5-.2-.6-.9-.9-2.1-.9h-1.7v-1.4c2.4.1,4.7.2,7.1.2s3.7,0,5.3-.2v1.4h-1.7c-1,0-1.7.1-1.9.4-.3.2-.4.9-.5,1.8,0,1.5-.1,4.3-.1,8.2v7.4c0,5.6.1,8.6.4,9.2.2.6,1,.8,2.4.8h1.4v1.4c-1.8-.1-3.7-.2-5.8-.2s-4.6,0-6.6.2v-1.4s-.1.2-.1.2Z"/>
    </g>
    <g id="I2">
      <g id="SHADOW-2">
        <rect class="cls-4" x="49.6803" y="24.5859" width="68.6391" height="2.8284" transform="translate(6.2203 67.0162) rotate(-45.003)"/>
        <rect class="cls-4" x="60" y="2" width="50" height="50" rx="2.5" ry="2.5"/>
      </g>
      <rect id="Rect-2" class="cls-5" x="58" width="50" height="50" rx="2.5" ry="2.5"/>
      <path class="cls-1" d="m76.8,38.9h1.4c1.3,0,2.1-.3,2.4-1,.3-.6.4-3.7.4-9.3v-7.3c0-5.7-.1-8.9-.3-9.5-.2-.6-.9-.9-2.1-.9h-1.7v-1.4c2.4.1,4.7.2,7.1.2s3.7,0,5.3-.2v1.4h-1.7c-1,0-1.7.1-1.9.4-.3.2-.4.9-.5,1.8,0,1.5-.1,4.3-.1,8.2v7.4c0,5.6.1,8.6.4,9.2.2.6,1,.8,2.4.8h1.4v1.4c-1.8-.1-3.7-.2-5.8-.2s-4.6,0-6.6.2v-1.4l-.1.2h0Z"/>
    </g>
    <g id="O">
      <g id="SHADOW-3">
        <rect class="cls-4" x="107.6805" y="24.5859" width="68.6391" height="2.8284" transform="translate(23.2103 108.0306) rotate(-45.003)"/>
        <rect class="cls-4" x="118" y="2" width="50" height="50" rx="2.5" ry="2.5"/>
      </g>
      <rect id="Rect-3" class="cls-5" x="116" width="50" height="50" rx="2.5" ry="2.5"/>
      <path class="cls-1" d="m124.7,25c0-4.7,1.5-8.5,4.6-11.4s7.1-4.3,12.1-4.3,8.8,1.3,11.7,4c2.8,2.7,4.2,6.2,4.2,10.6s-1.6,8.8-4.9,12c-3.3,3.2-7.4,4.8-12.4,4.8s-5.8-.6-8-1.9c-2.3-1.3-4-3.1-5.3-5.5-1.3-2.4-2-5.2-2-8.3h0Zm4.4-1.8c0,3.2.6,6.1,1.7,8.5,1.1,2.4,2.6,4.2,4.5,5.4s4,1.8,6.4,1.8,4.2-.5,5.8-1.5c1.7-1,3-2.5,3.9-4.6,1-2,1.4-4.5,1.4-7.4s-.5-5.6-1.6-7.8c-1.1-2.2-2.5-3.8-4.3-4.9-1.8-1.1-4-1.6-6.5-1.6s-4.3.5-5.9,1.4c-1.7,1-3,2.4-3.9,4.2-.9,1.9-1.4,4-1.4,6.4l-.1.1h0Z"/>
    </g>
    <g id="T">
      <g id="SHADOW-4">
        <rect class="cls-2" x="165.6804" y="24.5859" width="68.6391" height="2.8284" transform="translate(40.2002 149.0449) rotate(-45.003)"/>
        <rect class="cls-2" x="176" y="2" width="50" height="50" rx="2.5" ry="2.5"/>
      </g>
      <rect id="Rect-4" class="cls-3" x="174" width="50" height="50" rx="2.5" ry="2.5"/>
      <path class="cls-1" d="m201.3,11.7c-.2,2.1-.2,4.4-.2,6.8v12.2c0,4.6.1,7.1.3,7.5.2.5,1,.7,2.4.7h1.6v1.4c-2.5-.1-4.7-.2-6.4-.2s-3.9,0-6.4.2v-1.4h1.8c.9,0,1.6-.1,1.8-.4.3-.3.5-.7.5-1.5.1-1.7.2-3.8.2-6.5v-12.3c0-2.4,0-4.6-.2-6.7h-2.2c-3.5,0-5.5,0-5.8.2-.4.2-.6.8-.7,1.9l-.3,2.9h-1.4v-2.6c0-1,0-2.5-.2-4.4,7.7.1,12.3.2,13.6.2l11.9-.2c-.3,2.4-.4,4.8-.5,7h-1.4l-.2-2.8c0-1-.2-1.6-.4-1.7-.2-.2-.5-.3-1.1-.3-1.6-.1-3.4-.2-5.4-.2h-1.7l.3999.2h0Z"/>
    </g>
  </g>
</svg>