<?xml version="1.0" encoding="UTF-8"?>
<svg id="Logo" xmlns="http://www.w3.org/2000/svg" viewBox="0 0 410 112">
  <defs>
    <style>
      .cls-1 {
        fill: #fff;
      }

      .cls-2 {
        fill: #36376d;
      }

      .cls-3 {
        fill: #595bb4;
      }

      .cls-4 {
        fill: #a3a3a3;
      }

      .cls-5 {
        fill: #636363;
      }

      .cls-6 {
        fill: #427576;
      }

      .cls-7 {
        fill: #1a1a1a;
      }

      .cls-8 {
        fill: #6dc1c3;
      }
    </style>
  </defs>
  <g id="Tiles">
    <g id="I">
      <g id="Tile">
        <g id="SHADOW">
          <rect class="cls-6" x="2.3" y="2.3" width="50" height="50" rx="2.5" ry="2.5"/>
          <polygon class="cls-6" points="51.6 3 49.6 1 49.6 3 51.6 3"/>
          <polygon class="cls-6" points="1.1 49.5 3.1 51.5 3.1 49.5 1.1 49.5"/>
        </g>
        <rect class="cls-8" x=".3" y=".3" width="50" height="50" rx="2.5" ry="2.5"/>
      </g>
      <path class="cls-1" d="m19.2,39.2h1.4c1.3,0,2.1-.3,2.4-1,.3-.6.4-3.7.4-9.3v-7.3c0-5.7-.1-8.9-.3-9.5-.2-.6-.9-.9-2.1-.9h-1.7v-1.4c2.4.1,4.7.2,7.1.2s3.7,0,5.3-.2v1.4h-1.7c-1,0-1.7.1-1.9.4-.3.2-.4.9-.5,1.8,0,1.5-.1,4.3-.1,8.2v7.4c0,5.6.1,8.6.4,9.2.2.6,1,.8,2.4.8h1.4v1.4c-1.8-.1-3.7-.2-5.8-.2s-4.6,0-6.6.2v-1.4Z"/>
    </g>
    <g id="I2">
      <g id="Tile-2" data-name="Tile">
        <g id="SHADOW-2" data-name="SHADOW">
          <rect class="cls-6" x="60" y="62" width="50" height="50" rx="2.5" ry="2.5"/>
          <polygon class="cls-6" points="109.3 62.7 107.3 60.7 107.3 62.7 109.3 62.7"/>
          <polygon class="cls-6" points="58.7 109.3 60.7 111.3 60.7 109.3 58.7 109.3"/>
        </g>
        <rect class="cls-8" x="58" y="60" width="50" height="50" rx="2.5" ry="2.5"/>
      </g>
      <path class="cls-1" d="m76.8,98.9h1.4c1.3,0,2.1-.3,2.4-1,.3-.6.4-3.7.4-9.3v-7.3c0-5.7-.1-8.9-.3-9.5-.2-.6-.9-.9-2.1-.9h-1.7v-1.4c2.4.1,4.7.2,7.1.2s3.7,0,5.3-.2v1.4h-1.7c-1,0-1.7.1-1.9.4-.3.2-.4.9-.5,1.8,0,1.5-.1,4.3-.1,8.2v7.4c0,5.6.1,8.6.4,9.2.2.6,1,.8,2.4.8h1.4v1.4c-1.8-.1-3.7-.2-5.8-.2s-4.6,0-6.6.2v-1.4Z"/>
    </g>
    <g id="O">
      <g id="Tile-3" data-name="Tile">
        <g id="SHADOW-3" data-name="SHADOW">
          <rect class="cls-6" x="118" y="2" width="50" height="50" rx="2.5" ry="2.5"/>
          <polygon class="cls-6" points="167.3 2.7 165.3 .7 165.3 2.7 167.3 2.7"/>
          <polygon class="cls-6" points="116.7 49.3 118.7 51.3 118.7 49.3 116.7 49.3"/>
        </g>
        <rect class="cls-8" x="116" width="50" height="50" rx="2.5" ry="2.5"/>
      </g>
      <path class="cls-1" d="m124.7,25c0-4.7,1.5-8.5,4.6-11.4s7.1-4.3,12.1-4.3,8.8,1.3,11.7,4c2.8,2.7,4.2,6.2,4.2,10.6s-1.6,8.8-4.9,12c-3.3,3.2-7.4,4.8-12.4,4.8s-5.8-.6-8-1.9c-2.3-1.3-4-3.1-5.3-5.5-1.3-2.4-2-5.2-2-8.3Zm4.4-1.8c0,3.2.6,6.1,1.7,8.5,1.1,2.4,2.6,4.2,4.5,5.4,1.9,1.2,4,1.8,6.4,1.8s4.2-.5,5.8-1.5c1.7-1,3-2.5,3.9-4.6,1-2,1.4-4.5,1.4-7.4s-.5-5.6-1.6-7.8c-1.1-2.2-2.5-3.8-4.3-4.9-1.8-1.1-4-1.6-6.5-1.6s-4.3.5-5.9,1.4c-1.7,1-3,2.4-3.9,4.2-.9,1.9-1.4,4-1.4,6.4Z"/>
    </g>
    <g id="T">
      <rect class="cls-3" x="174" width="50" height="50" rx="2.5" ry="2.5"/>
      <g id="Tile-4" data-name="Tile">
        <g id="SHADOW-4" data-name="SHADOW">
          <rect class="cls-2" x="176" y="2" width="50" height="50" rx="2.5" ry="2.5"/>
          <polygon class="cls-2" points="225.3 2.7 223.3 .7 223.3 2.7 225.3 2.7"/>
          <polygon class="cls-2" points="174.7 49.3 176.7 51.3 176.7 49.3 174.7 49.3"/>
        </g>
        <rect class="cls-3" x="174" width="50" height="50" rx="2.5" ry="2.5"/>
      </g>
      <path class="cls-1" d="m201.3,11.7c-.2,2.1-.2,4.4-.2,6.8v12.2c0,4.6.1,7.1.3,7.5.2.5,1,.7,2.4.7h1.6v1.4c-2.5-.1-4.7-.2-6.4-.2s-3.9,0-6.4.2v-1.4h1.8c.9,0,1.6-.1,1.8-.4.3-.3.5-.7.5-1.5.1-1.7.2-3.8.2-6.5v-12.3c0-2.4,0-4.6-.2-6.7h-2.2c-3.5,0-5.5,0-5.8.2-.4.2-.6.8-.7,1.9l-.3,2.9h-1.4v-2.6c0-1,0-2.5-.2-4.4,7.7.1,12.3.2,13.6.2l11.9-.2c-.3,2.4-.4,4.8-.5,7h-1.4l-.2-2.8c0-1-.2-1.6-.4-1.7-.2-.2-.5-.3-1.1-.3-1.6-.1-3.4-.2-5.4-.2h-1.7Z"/>
    </g>
    <g id="_" data-name="+">
      <g id="Tile-5" data-name="Tile">
        <g id="SHADOW-5" data-name="SHADOW">
          <rect class="cls-5" x="2" y="62" width="50" height="50" rx="2.5" ry="2.5"/>
          <polygon class="cls-5" points="51.3 62.7 49.3 60.7 49.3 62.7 51.3 62.7"/>
          <polygon class="cls-5" points=".7 109.3 2.7 111.3 2.7 109.3 .7 109.3"/>
        </g>
        <rect class="cls-4" y="60" width="50" height="50" rx="2.5" ry="2.5"/>
      </g>
      <path class="cls-1" d="m14.2,86.5v-3h9.3v-9.3h3v9.3h9.3v3h-9.3v9.3h-3v-9.3h-9.3Z"/>
    </g>
    <g id="_-2" data-name="(">
      <g id="Tile-6" data-name="Tile">
        <g id="SHADOW-6" data-name="SHADOW">
          <rect class="cls-5" x="60" y="2" width="50" height="50" rx="2.5" ry="2.5"/>
          <polygon class="cls-5" points="109.3 2.7 107.3 .7 107.3 2.7 109.3 2.7"/>
          <polygon class="cls-5" points="58.7 49.3 60.7 51.3 60.7 49.3 58.7 49.3"/>
        </g>
        <rect class="cls-4" x="58" width="50" height="50" rx="2.5" ry="2.5"/>
      </g>
      <path class="cls-1" d="m87.8,44l-1,1c-2.2-2.2-3.9-4.2-5-6.2-1.2-1.9-2-4.1-2.7-6.4-.6-2.4-.9-4.8-.9-7.4s.4-5.8,1.2-8.3c.8-2.5,1.9-4.7,3.1-6.5,1.2-1.8,2.7-3.4,4.4-5l.8,1.1c-1.5,1.8-2.7,3.6-3.6,5.3-.9,1.8-1.5,3.7-2,5.8-.4,2.1-.7,4.5-.7,7.2s.2,5.4.6,7.6c.4,2.2,1,4.2,1.8,5.8.8,1.7,2,3.7,3.8,6.1Z"/>
    </g>
    <g id="_-3" data-name=")">
      <g id="Tile-7" data-name="Tile">
        <g id="SHADOW-7" data-name="SHADOW">
          <rect class="cls-5" x="118" y="62" width="50" height="50" rx="2.5" ry="2.5"/>
          <polygon class="cls-5" points="167.3 62.7 165.3 60.7 165.3 62.7 167.3 62.7"/>
          <polygon class="cls-5" points="116.7 109.3 118.7 111.3 118.7 109.3 116.7 109.3"/>
        </g>
        <rect class="cls-4" x="116" y="60" width="50" height="50" rx="2.5" ry="2.5"/>
      </g>
      <path class="cls-1" d="m136.2,66l1-1c2.2,2.2,3.8,4.2,5,6.2,1.2,1.9,2.1,4.1,2.7,6.4.6,2.4.9,4.8.9,7.4s-.4,5.8-1.2,8.3-1.9,4.7-3.1,6.5-2.7,3.4-4.4,5l-.8-1.1c1.5-1.8,2.7-3.6,3.6-5.3s1.5-3.7,2-5.8c.5-2.1.7-4.5.7-7.2s-.2-5.4-.6-7.6c-.4-2.2-1-4.2-1.8-5.9-.8-1.7-2-3.7-3.8-6.1Z"/>
    </g>
    <g id="semicolon">
      <g id="Tile-8" data-name="Tile">
        <g id="SHADOW-8" data-name="SHADOW">
          <rect class="cls-5" x="176" y="62" width="50" height="50" rx="2.5" ry="2.5"/>
          <polygon class="cls-5" points="225.3 62.7 223.3 60.7 223.3 62.7 225.3 62.7"/>
          <polygon class="cls-5" points="174.7 109.3 176.7 111.3 176.7 109.3 174.7 109.3"/>
        </g>
        <rect class="cls-4" x="174" y="60" width="50" height="50" rx="2.5" ry="2.5"/>
      </g>
      <path class="cls-1" d="m202.8,86l.6.6c-.8,2-1.7,3.8-2.7,5.4-1,1.6-2.2,3.4-3.8,5.4l-1.8.9-.6-.5c1.4-2.4,2.4-4.3,2.9-5.7.5-1.4.9-3,1-4.7,1.7-.4,3.1-.9,4.4-1.4Zm-2.3-14.3c.7,0,1.3.2,1.8.7.5.5.7,1.1.7,1.8s-.2,1.3-.7,1.8-1.1.7-1.8.7-1.3-.2-1.8-.7-.7-1.1-.7-1.8.2-1.3.7-1.8c.5-.5,1.1-.7,1.8-.7Z"/>
    </g>
  </g>
  <g id="IIOT_text">
    <path class="cls-8" d="m248.3,2.7v19.6h-4.4V2.7h4.4Z"/>
    <path class="cls-7" d="m252.1,12.6c0-1.8,0-3.3-.1-4.5h3.8l.2,2h0c.6-.9,2-2.3,4.4-2.3s5.1,1.9,5.1,6.1v8.4h-4.4v-7.9c0-1.8-.7-3.1-2.2-3.1s-1.9.9-2.2,1.7c-.1.3-.2.7-.2,1.1v8.2h-4.4v-9.7Z"/>
    <path class="cls-7" d="m273.9,4v4h3.2v3.3h-3.2v5.1c0,1.7.4,2.5,1.7,2.5s1,0,1.3-.1v3.4c-.5.2-1.6.4-2.8.4s-2.6-.5-3.3-1.2c-.8-.8-1.2-2.2-1.2-4.2v-5.8h-1.9v-3.3h1.9v-3.1l4.3-1Z"/>
    <path class="cls-7" d="m282.8,16.6c.1,1.8,1.9,2.7,4,2.7s2.7-.2,3.9-.6l.6,3c-1.5.6-3.2.9-5.1.9-4.8,0-7.6-2.8-7.6-7.2s2.2-7.6,7.2-7.6,6.3,3.6,6.3,7.1,0,1.4-.2,1.7h-9.1Zm5.2-3c0-1.1-.5-2.9-2.5-2.9s-2.6,1.7-2.7,2.9h5.2Z"/>
    <path class="cls-7" d="m294.7,12.8c0-2.1,0-3.5-.1-4.7h3.8l.2,2.6h.1c.7-2.1,2.5-2.9,3.8-2.9s.6,0,.9,0v4.2c-.3,0-.7-.1-1.2-.1-1.6,0-2.7.9-3,2.2,0,.3,0,.6,0,1v7.2h-4.4v-9.5Z"/>
    <path class="cls-7" d="m305.7,12.6c0-1.8,0-3.3-.1-4.5h3.8l.2,2h0c.6-.9,2-2.3,4.4-2.3s5.1,1.9,5.1,6.1v8.4h-4.4v-7.9c0-1.8-.7-3.1-2.2-3.1s-1.9.9-2.2,1.7c-.1.3-.2.7-.2,1.1v8.2h-4.4v-9.7Z"/>
    <path class="cls-7" d="m330.8,22.3l-.3-1.4h0c-.9,1.1-2.4,1.7-4.1,1.7-2.9,0-4.6-2.1-4.6-4.3,0-3.7,3.3-5.5,8.3-5.4v-.2c0-.8-.4-1.8-2.6-1.8-1.4,0-3,.5-3.9,1.1l-.8-2.8c1-.6,2.9-1.3,5.5-1.3,4.7,0,6.2,2.8,6.2,6.1v5c0,1.4,0,2.6.2,3.4h-4Zm-.5-6.7c-2.3,0-4.1.5-4.1,2.2s.7,1.7,1.8,1.7,2-.7,2.3-1.6c0-.2,0-.5,0-.8v-1.6Z"/>
    <path class="cls-7" d="m342.7,4v4h3.2v3.3h-3.2v5.1c0,1.7.4,2.5,1.7,2.5s1,0,1.3-.1v3.4c-.5.2-1.6.4-2.8.4s-2.6-.5-3.3-1.2c-.8-.8-1.2-2.2-1.2-4.2v-5.8h-1.9v-3.3h1.9v-3.1l4.3-1Z"/>
    <path class="cls-7" d="m353,4.1c0,1.2-.9,2.2-2.4,2.2s-2.3-1-2.3-2.2c0-1.3.9-2.2,2.3-2.2s2.3.9,2.3,2.2Zm-4.5,18.1v-14.2h4.4v14.2h-4.4Z"/>
    <path class="cls-7" d="m370.4,15c0,5.2-3.7,7.6-7.5,7.6s-7.3-2.7-7.3-7.3,3-7.5,7.6-7.5,7.2,3,7.2,7.3Zm-10.3.1c0,2.4,1,4.3,2.9,4.3s2.8-1.7,2.8-4.3-.8-4.2-2.8-4.2-2.9,2.2-2.9,4.3Z"/>
    <path class="cls-7" d="m373.1,12.6c0-1.8,0-3.3-.1-4.5h3.8l.2,2h0c.6-.9,2-2.3,4.4-2.3s5.1,1.9,5.1,6.1v8.4h-4.4v-7.9c0-1.8-.7-3.1-2.2-3.1s-1.9.9-2.2,1.7c-.1.3-.2.7-.2,1.1v8.2h-4.4v-9.7Z"/>
    <path class="cls-7" d="m398.2,22.3l-.3-1.4h0c-.9,1.1-2.4,1.7-4.1,1.7-2.9,0-4.6-2.1-4.6-4.3,0-3.7,3.3-5.5,8.3-5.4v-.2c0-.8-.4-1.8-2.6-1.8-1.4,0-3,.5-3.9,1.1l-.8-2.8c1-.6,2.9-1.3,5.5-1.3,4.7,0,6.2,2.8,6.2,6.1v5c0,1.4,0,2.6.2,3.4h-4Zm-.5-6.7c-2.3,0-4.1.5-4.1,2.2s.7,1.7,1.8,1.7,2-.7,2.3-1.6c0-.2,0-.5,0-.8v-1.6Z"/>
    <path class="cls-7" d="m405.4,1.7h4.4v20.6h-4.4V1.7Z"/>
    <path class="cls-8" d="m248.3,31.7v19.6h-4.4v-19.6h4.4Z"/>
    <path class="cls-7" d="m252.1,41.6c0-1.8,0-3.3-.1-4.5h3.8l.2,2h0c.6-.9,2-2.3,4.4-2.3s5.1,1.9,5.1,6.1v8.4h-4.4v-7.9c0-1.8-.7-3.1-2.2-3.1s-1.9.9-2.2,1.7c-.1.3-.2.7-.2,1.1v8.2h-4.4v-9.7Z"/>
    <path class="cls-7" d="m269.6,51.3v-10.9h-1.9v-3.3h1.9v-.5c0-1.7.5-3.6,1.8-4.8,1.1-1,2.6-1.4,3.9-1.4s1.7.1,2.3.3l-.2,3.4c-.4-.1-.8-.2-1.4-.2-1.5,0-2.1,1.1-2.1,2.5v.7h2.8v3.3h-2.8v10.9h-4.4Z"/>
    <path class="cls-7" d="m292.7,44c0,5.2-3.7,7.6-7.5,7.6s-7.3-2.7-7.3-7.3,3-7.5,7.6-7.5,7.2,3,7.2,7.3Zm-10.3.1c0,2.4,1,4.3,2.9,4.3s2.8-1.7,2.8-4.3-.8-4.2-2.8-4.2-2.9,2.2-2.9,4.3Z"/>
    <path class="cls-7" d="m295.4,41.8c0-2.1,0-3.5-.1-4.7h3.8l.2,2.6h.1c.7-2.1,2.5-2.9,3.8-2.9s.6,0,.9,0v4.2c-.3,0-.7-.1-1.2-.1-1.6,0-2.7.9-3,2.2,0,.3,0,.6,0,1v7.2h-4.4v-9.5Z"/>
    <path class="cls-7" d="m306.4,41.6c0-1.8,0-3.3-.1-4.5h3.7l.2,1.9h0c.6-.9,1.9-2.2,4.3-2.2s3.3.9,3.9,2.4h0c.5-.8,1.2-1.3,1.8-1.7.8-.5,1.6-.7,2.7-.7,2.7,0,4.8,1.9,4.8,6.2v8.4h-4.3v-7.7c0-2.1-.7-3.3-2.1-3.3s-1.7.7-2,1.5c-.1.3-.2.8-.2,1.1v8.3h-4.3v-8c0-1.8-.6-3-2-3s-1.8.9-2.1,1.6c-.1.3-.2.7-.2,1.1v8.3h-4.3v-9.7Z"/>
    <path class="cls-7" d="m339.4,51.3l-.3-1.4h0c-.9,1.1-2.4,1.7-4.1,1.7-2.9,0-4.6-2.1-4.6-4.3,0-3.7,3.3-5.5,8.3-5.4v-.2c0-.8-.4-1.8-2.6-1.8-1.4,0-3,.5-3.9,1.1l-.8-2.8c1-.6,2.9-1.3,5.5-1.3,4.7,0,6.2,2.8,6.2,6.1v5c0,1.4,0,2.6.2,3.4h-4Zm-.5-6.7c-2.3,0-4.1.5-4.1,2.2s.7,1.7,1.8,1.7,2-.7,2.3-1.6c0-.2,0-.5,0-.8v-1.6Z"/>
    <path class="cls-7" d="m351.3,33v4h3.2v3.3h-3.2v5.1c0,1.7.4,2.5,1.7,2.5s1,0,1.3-.1v3.4c-.5.2-1.6.4-2.8.4s-2.6-.5-3.3-1.2c-.8-.8-1.2-2.2-1.2-4.2v-5.8h-1.9v-3.3h1.9v-3.1l4.3-1Z"/>
    <path class="cls-7" d="m361.6,33.1c0,1.2-.9,2.2-2.4,2.2s-2.3-1-2.3-2.2c0-1.3.9-2.2,2.3-2.2s2.3.9,2.3,2.2Zm-4.5,18.1v-14.2h4.4v14.2h-4.4Z"/>
    <path class="cls-7" d="m375.7,50.9c-.8.4-2.3.7-4,.7-4.6,0-7.5-2.8-7.5-7.3s2.8-7.5,8.1-7.5,2.4.2,3.4.6l-.7,3.3c-.5-.2-1.3-.5-2.5-.5-2.3,0-3.8,1.7-3.8,4,0,2.6,1.8,4,3.9,4s1.9-.2,2.5-.5l.5,3.3Z"/>
    <path class="cls-7" d="m378.1,47.4c.8.5,2.5,1.1,3.8,1.1s1.9-.4,1.9-1.2-.5-1.1-2.1-1.6c-3-1-4.1-2.6-4-4.2,0-2.7,2.2-4.7,5.8-4.7s3.1.4,4,.8l-.8,3c-.6-.3-1.9-.8-3.1-.8s-1.7.4-1.7,1.1.6,1,2.3,1.6c2.7.9,3.8,2.3,3.8,4.4,0,2.6-2.1,4.6-6.1,4.6s-3.5-.4-4.6-1l.8-3.2Z"/>
    <path class="cls-8" d="m255.8,70.3c0,6.4-3.9,10.3-9.6,10.3s-9.2-4.4-9.2-10,3.8-10.2,9.5-10.2,9.3,4.5,9.3,9.9Zm-14.1.2c0,3.8,1.8,6.5,4.8,6.5s4.7-2.8,4.7-6.6-1.7-6.5-4.7-6.5-4.7,2.8-4.7,6.6Z"/>
    <path class="cls-7" d="m258.6,59.7h4.4v20.6h-4.4v-20.6Z"/>
    <path class="cls-7" d="m269.9,66.1l2.1,7c.2.8.5,1.9.7,2.6h0c.2-.8.4-1.8.6-2.6l1.8-7h4.7l-3.3,9.3c-2,5.6-3.4,7.9-5,9.3-1.5,1.3-3.1,1.8-4.2,1.9l-.9-3.7c.6-.1,1.2-.4,1.9-.8.7-.4,1.4-1.1,1.8-1.8.2-.2.2-.4.2-.6s0-.4-.2-.7l-5.2-13h4.9Z"/>
    <path class="cls-7" d="m281.8,70.6c0-1.8,0-3.3-.1-4.5h3.7l.2,1.9h0c.6-.9,1.9-2.2,4.3-2.2s3.3.9,3.9,2.4h0c.5-.8,1.2-1.3,1.8-1.7.8-.5,1.6-.7,2.7-.7,2.7,0,4.8,1.9,4.8,6.2v8.4h-4.3v-7.7c0-2.1-.7-3.3-2.1-3.3s-1.7.7-2,1.5c-.1.3-.2.8-.2,1.1v8.3h-4.3v-8c0-1.8-.6-3-2-3s-1.8.9-2.1,1.6c-.1.3-.2.7-.2,1.1v8.3h-4.3v-9.7Z"/>
    <path class="cls-7" d="m306.8,70.8c0-1.9,0-3.4-.1-4.8h3.8l.2,2h0c1.1-1.5,2.7-2.3,4.7-2.3,3.1,0,5.9,2.7,5.9,7.2s-3.3,7.6-6.5,7.6-3.1-.7-3.7-1.6h0v7h-4.4v-15.2Zm4.4,3.3c0,.3,0,.6,0,.9.3,1.2,1.3,2.1,2.6,2.1,1.9,0,3-1.6,3-4s-1-4-3-4-2.4.9-2.6,2.2c0,.3,0,.5,0,.8v2Z"/>
    <path class="cls-7" d="m328.6,62.1c0,1.2-.9,2.2-2.4,2.2s-2.3-1-2.3-2.2c0-1.3.9-2.2,2.3-2.2s2.3.9,2.3,2.2Zm-4.5,18.1v-14.2h4.4v14.2h-4.4Z"/>
    <path class="cls-7" d="m340.1,80.3l-.3-1.4h0c-.9,1.1-2.4,1.7-4.1,1.7-2.9,0-4.6-2.1-4.6-4.3,0-3.7,3.3-5.5,8.3-5.4v-.2c0-.8-.4-1.8-2.6-1.8-1.4,0-3,.5-3.9,1.1l-.8-2.8c1-.6,2.9-1.3,5.5-1.3,4.7,0,6.2,2.8,6.2,6.1v5c0,1.4,0,2.6.2,3.4h-4Zm-.5-6.7c-2.3,0-4.1.5-4.1,2.2s.7,1.7,1.8,1.7,2-.7,2.3-1.6c0-.2,0-.5,0-.8v-1.6Z"/>
    <path class="cls-7" d="m361.1,59.7v16.4c0,1.6,0,3.3.1,4.2h-3.9l-.2-2.1h0c-.9,1.6-2.6,2.4-4.4,2.4-3.3,0-6.1-2.9-6.1-7.3,0-4.8,3-7.5,6.4-7.5s3.1.6,3.7,1.6h0v-7.7h4.4Zm-4.4,12.4c0-.2,0-.5,0-.8-.3-1.2-1.2-2.2-2.6-2.2-2,0-3,1.8-3,4s1.2,3.9,3,3.9,2.3-.9,2.6-2.1c0-.3,0-.6,0-1v-1.9Z"/>
    <path class="cls-7" d="m375,62.1c0,1.2-.9,2.2-2.4,2.2s-2.3-1-2.3-2.2c0-1.3.9-2.2,2.3-2.2s2.3.9,2.3,2.2Zm-4.5,18.1v-14.2h4.4v14.2h-4.4Z"/>
    <path class="cls-7" d="m378.4,70.6c0-1.8,0-3.3-.1-4.5h3.8l.2,2h0c.6-.9,2-2.3,4.4-2.3s5.1,1.9,5.1,6.1v8.4h-4.4v-7.9c0-1.8-.7-3.1-2.2-3.1s-1.9.9-2.2,1.7c-.1.3-.2.7-.2,1.1v8.2h-4.4v-9.7Z"/>
    <path class="cls-3" d="m244.1,93.4h-5.3v-3.7h15v3.7h-5.4v15.8h-4.4v-15.8Z"/>
    <path class="cls-7" d="m257.1,103.6c.1,1.8,1.9,2.7,4,2.7s2.7-.2,3.9-.6l.6,3c-1.5.6-3.2.9-5.1.9-4.8,0-7.6-2.8-7.6-7.2s2.2-7.6,7.2-7.6,6.3,3.6,6.3,7.1,0,1.4-.2,1.7h-9.1Zm5.2-3c0-1.1-.5-2.9-2.5-2.9s-2.6,1.7-2.7,2.9h5.2Z"/>
    <path class="cls-7" d="m277.1,109.3l-.3-1.4h0c-.9,1.1-2.4,1.7-4.1,1.7-2.9,0-4.6-2.1-4.6-4.3,0-3.7,3.3-5.5,8.3-5.4v-.2c0-.8-.4-1.8-2.6-1.8-1.4,0-3,.5-3.9,1.1l-.8-2.8c1-.6,2.9-1.3,5.5-1.3,4.7,0,6.2,2.8,6.2,6.1v5c0,1.4,0,2.6.2,3.4h-4Zm-.5-6.7c-2.3,0-4.1.5-4.1,2.2s.7,1.7,1.8,1.7,2-.7,2.3-1.6c0-.2,0-.5,0-.8v-1.6Z"/>
    <path class="cls-7" d="m284.3,99.6c0-1.8,0-3.3-.1-4.5h3.7l.2,1.9h0c.6-.9,1.9-2.2,4.3-2.2s3.3.9,3.9,2.4h0c.5-.8,1.2-1.3,1.8-1.7.8-.5,1.6-.7,2.7-.7,2.7,0,4.8,1.9,4.8,6.2v8.4h-4.3v-7.7c0-2.1-.7-3.3-2.1-3.3s-1.7.7-2,1.5c-.1.3-.2.8-.2,1.1v8.3h-4.3v-8c0-1.8-.6-3-2-3s-1.8.9-2.1,1.6c-.1.3-.2.7-.2,1.1v8.3h-4.3v-9.7Z"/>
    <path class="cls-7" d="m309.3,105.4c.8.5,2.5,1.1,3.8,1.1s1.9-.4,1.9-1.2-.5-1.1-2.1-1.6c-3-1-4.1-2.6-4-4.2,0-2.7,2.2-4.7,5.8-4.7s3.1.4,4,.8l-.8,3c-.6-.3-1.9-.8-3.1-.8s-1.7.4-1.7,1.1.6,1,2.3,1.6c2.7.9,3.8,2.3,3.8,4.4,0,2.6-2.1,4.6-6.1,4.6s-3.5-.4-4.6-1l.8-3.2Z"/>
  </g>
</svg>