<?xml version="1.0" encoding="UTF-8"?>
<svg id="Layer_1" data-name="Layer 1" xmlns="http://www.w3.org/2000/svg" viewBox="0 0 125 125">
  <defs>
    <style>
      .cls-1 {
        fill: #fff;
      }

      .cls-2 {
        fill: #595bb4;
      }

      .cls-3 {
        fill: #6dc1c3;
      }
    </style>
  </defs>
  <g id="Tiles">
    <g id="I">
      <rect class="cls-3" x="0" width="60" height="60" rx="3" ry="3"/>
      <path class="cls-1" d="m22.6,46.7h1.6c1.6,0,2.6-.4,2.9-1.2.3-.8.5-4.5.5-11.1v-8.7c0-6.9-.1-10.7-.4-11.4-.3-.7-1.1-1.1-2.5-1.1h-2.1v-1.6c2.9.1,5.7.2,8.5.2s4.4,0,6.3-.2v1.6h-2c-1.2,0-2,.1-2.3.4-.3.3-.5,1-.5,2.2,0,1.8-.1,5.1-.1,9.8v8.9c0,6.7.1,10.4.4,11,.3.7,1.2,1,2.8,1h1.7v1.6c-2.1-.1-4.4-.2-6.9-.2s-5.5,0-7.9.2v-1.6Z"/>
    </g>
    <g id="I2">
      <rect class="cls-3" x="65" width="60" height="60" rx="3" ry="3"/>
      <path class="cls-1" d="m87.6,46.7h1.6c1.6,0,2.6-.4,2.9-1.2.3-.8.5-4.5.5-11.1v-8.7c0-6.9-.1-10.7-.4-11.4-.3-.7-1.1-1.1-2.5-1.1h-2.1v-1.6c2.9.1,5.7.2,8.5.2s4.4,0,6.3-.2v1.6h-2c-1.2,0-2,.1-2.3.4-.3.3-.5,1-.5,2.2,0,1.8-.1,5.1-.1,9.8v8.9c0,6.7.1,10.4.4,11,.3.7,1.2,1,2.8,1h1.7v1.6c-2.1-.1-4.4-.2-6.9-.2s-5.5,0-7.9.2v-1.6Z"/>
    </g>
    <g id="O">
      <rect class="cls-3" x="0" y="65" width="60" height="60" rx="3" ry="3"/>
      <path class="cls-1" d="m10.4,95c0-5.7,1.8-10.2,5.5-13.7s8.5-5.2,14.6-5.2,10.6,1.6,14,4.8c3.4,3.2,5.1,7.5,5.1,12.8s-2,10.5-5.9,14.4c-3.9,3.9-8.9,5.8-14.8,5.8s-6.9-.8-9.6-2.3c-2.7-1.5-4.8-3.7-6.4-6.6-1.6-2.9-2.3-6.2-2.3-10Zm5.2-2.1c0,3.9.7,7.3,2,10.1,1.3,2.9,3.1,5,5.4,6.5,2.2,1.4,4.8,2.2,7.7,2.2s5-.6,7-1.8c2-1.2,3.6-3,4.7-5.5,1.1-2.4,1.7-5.4,1.7-8.8s-.6-6.8-1.9-9.3c-1.3-2.6-3-4.5-5.2-5.8-2.2-1.3-4.8-2-7.8-2s-5.1.6-7.1,1.7c-2,1.2-3.6,2.8-4.7,5.1-1.1,2.2-1.7,4.8-1.7,7.7Z"/>
    </g>
    <g id="T">
      <rect class="cls-2" x="65" y="65" width="60" height="60" rx="3" ry="3"/>
      <path class="cls-1" d="m97.7,79c-.2,2.6-.3,5.3-.3,8.1v14.7c0,5.5.1,8.5.4,9,.3.6,1.3.8,2.9.8h1.9v1.6c-3-.1-5.6-.2-7.7-.2s-4.7,0-7.7.2v-1.6h2.2c1.1,0,1.9-.1,2.2-.5.3-.3.6-.9.6-1.8.2-2,.3-4.6.3-7.8v-14.7c0-2.9,0-5.6-.2-8h-2.6c-4.2,0-6.6,0-7,.3-.4.2-.7,1-.8,2.3l-.4,3.5h-1.6v-3.1c0-1.2,0-3-.3-5.3,9.3.1,14.7.2,16.4.2l14.3-.2c-.3,2.9-.5,5.7-.6,8.4h-1.6l-.3-3.4c-.1-1.2-.2-1.9-.4-2.1-.2-.2-.6-.3-1.3-.4-1.9-.1-4-.2-6.4-.2h-2Z"/>
    </g>
  </g>
</svg>